<?xml version="1.0" encoding="utf-8"?>
<!-- Generator: Adobe Illustrator 27.5.0, SVG Export Plug-In . SVG Version: 6.00 Build 0)  -->
<svg version="1.1" xmlns="http://www.w3.org/2000/svg" xmlns:xlink="http://www.w3.org/1999/xlink" x="0px" y="0px"
	 viewBox="0 0 3710 3710" style="enable-background:new 0 0 3710 3710;" xml:space="preserve">
<g id="Illustration">
	<g>
		<path style="fill:#F4F7FA;" d="M1062.786,629.334c-97.822,140.038,16.877,367.074-128.274,472.394
			c-141.294,102.521-314.87-65.525-448.029,22.725c-197.536,130.913-161.462,729.948,127.346,1102.141
			c86.854,111.931,159.427,155.481,191.568,282.07c69.018,271.818-173.545,433.512-127.385,567.949
			c103.935,302.703,1702.37,556.705,2343.734-353.015c299.543-424.877,344.361-1038.404,76.729-1504.38
			C2614.865,377.206,1282.282,315.115,1062.786,629.334z"/>
		<g>
			<g>
				<ellipse style="fill:#B7C0CE;" cx="1032.19" cy="2917.795" rx="296.037" ry="120.82"/>
				<path style="fill:#FFFFFF;" d="M736.153,2903.628c0,62.988,132.541,114.05,296.036,114.05
					c163.498,0,296.038-51.063,296.038-114.05c0-62.988-132.54-166.052-296.038-166.052
					C868.694,2737.576,736.153,2840.64,736.153,2903.628z"/>
				
					<linearGradient id="SVGID_1_" gradientUnits="userSpaceOnUse" x1="4731.7075" y1="2848.5847" x2="5229.2036" y2="2848.5847" gradientTransform="matrix(-1 0 0 1 5965.3564 0)">
					<stop  offset="0" style="stop-color:#AA80F9"/>
					<stop  offset="0.9964" style="stop-color:#6165D7"/>
				</linearGradient>
				<path style="opacity:0.3;fill:url(#SVGID_1_);" d="M736.153,2903.628c0-62.989,132.541-166.052,296.036-166.052
					c75.49,0,144.344,21.994,196.636,51.848c3.66,7.668,5.366,15.293,4.672,22.531c-3.393,35.439-61.194,57.228-94.372,64.414
					c-83.549,18.096-124.35-31.865-193.238-29.96c-42.589,1.176-101.608,22.573-171.611,113.185
					C750.044,2943.058,736.153,2923.972,736.153,2903.628z"/>
				<path style="fill:#FFFFFF;" d="M1015.976,2794.786c11.828,2.945,22.864,2.829,33.246,0.191
					c9.418-2.392,15.882-11.106,15.882-20.823l-0.001-333.807h-65.827v333.412
					C999.276,2783.776,1006.256,2792.368,1015.976,2794.786z"/>
				
					<linearGradient id="SVGID_00000178924668633885020840000017014183371685624963_" gradientUnits="userSpaceOnUse" x1="4900.2524" y1="2618.6609" x2="4966.0806" y2="2618.6609" gradientTransform="matrix(-1 0 0 1 5965.3564 0)">
					<stop  offset="0" style="stop-color:#AA80F9"/>
					<stop  offset="0.9964" style="stop-color:#6165D7"/>
				</linearGradient>
				<path style="opacity:0.65;fill:url(#SVGID_00000178924668633885020840000017014183371685624963_);" d="M1015.976,2794.786
					c11.828,2.945,22.864,2.829,33.246,0.191c9.418-2.392,15.882-11.106,15.882-20.823l-0.001-333.807h-65.827v333.412
					C999.276,2783.776,1006.256,2792.368,1015.976,2794.786z"/>
				<g>
					
						<linearGradient id="SVGID_00000166653663145526168890000002115966221115878816_" gradientUnits="userSpaceOnUse" x1="5259.9521" y1="2548.6609" x2="5139.2617" y2="2391.3972" gradientTransform="matrix(-1 0 0 1 5965.3564 0)">
						<stop  offset="0" style="stop-color:#311944"/>
						<stop  offset="1" style="stop-color:#893976"/>
					</linearGradient>
					<path style="fill:url(#SVGID_00000166653663145526168890000002115966221115878816_);" d="M1380.016,2299.861l-100.564-63.573
						c-4.182-23.748-51.585-272.18-244.03-350.194c-78.26-31.724-162.482-27.96-208.7-25.895
						c-92.266,4.122-158.08,7.061-189.733,51.072c-40.646,56.515,27.526,107.764,13.41,269.42
						c-5.755,65.922-20.394,95.2-2.161,138.872c21.841,52.314,72.495,81.311,111.879,97.634
						c47.078,27.338,129.051,66.296,237.317,75.785c182.366,15.981,318.513-62.248,365.331-92.179
						c20.82-6.565,36.461-23.876,40.889-45.253C1408.143,2333.876,1398.725,2311.687,1380.016,2299.861z"/>
					
						<linearGradient id="SVGID_00000032645175148390185440000011975743745521016207_" gradientUnits="userSpaceOnUse" x1="4984.8062" y1="2197.3684" x2="5139.8833" y2="1786.2916" gradientTransform="matrix(-1 0 0 1 5965.3564 0)">
						<stop  offset="0" style="stop-color:#311944"/>
						<stop  offset="1" style="stop-color:#893976"/>
					</linearGradient>
					<path style="fill:url(#SVGID_00000032645175148390185440000011975743745521016207_);" d="M806.444,1873.48
						c-68.24,2.022-110.647,1.227-134.1,31.698c-24.619,31.981,0.262,59.24,4.875,173.111
						c4.205,103.811-14.099,144.858,19.448,202.389c0,0,17.049,29.234,43.962,51.193c95.102,77.599,340.465,76.66,443.735-85.347
						c82.389-129.248,48.037-319.758-48.764-382.797C1088.173,1832.844,1077.289,1865.46,806.444,1873.48z"/>
					
						<linearGradient id="SVGID_00000022541107594001453280000017733061052816046482_" gradientUnits="userSpaceOnUse" x1="4898.0771" y1="2270.6943" x2="4895.7104" y2="2471.8672" gradientTransform="matrix(-1 0 0 1 5965.3564 0)">
						<stop  offset="0" style="stop-color:#311944"/>
						<stop  offset="1" style="stop-color:#893976"/>
					</linearGradient>
					<path style="fill:url(#SVGID_00000022541107594001453280000017733061052816046482_);" d="M1387.331,2242.771l-100.565-63.573
						c0,0-269.362-88.557-518.589,36.306c-27.906,13.985-45.274,42.855-45.274,74.07c0,23.95,14.387,45.558,36.484,54.801
						c43.477,29.682,128.357,78.691,245.361,91.518c186.015,20.39,324.418-64.79,365.333-92.18
						c20.818-6.565,36.461-23.875,40.887-45.252C1415.458,2276.786,1406.04,2254.596,1387.331,2242.771z"/>
				</g>
				<g>
					
						<linearGradient id="SVGID_00000147906518010096046680000011404572017888313511_" gradientUnits="userSpaceOnUse" x1="4445.5015" y1="3086.2197" x2="4598.7397" y2="3086.2197" gradientTransform="matrix(-1 0 0 1 5965.3564 0)">
						<stop  offset="0" style="stop-color:#311944"/>
						<stop  offset="1" style="stop-color:#6B3976"/>
					</linearGradient>
					<path style="fill:url(#SVGID_00000147906518010096046680000011404572017888313511_);" d="M1420.191,3037.594h-38.751
						c-9.59,15.465-20.231,37.459-11.702,51.589c5.91,9.791,15.861,7.245,43.837,16.119c39.117,12.41,48.564,26.558,82.036,28.921
						c12.275,0.866,21.238,1.497,23.64-2.875C1526.135,3118.81,1473.007,3076.153,1420.191,3037.594z"/>
					
						<linearGradient id="SVGID_00000006675098465654235240000001930089380836611462_" gradientUnits="userSpaceOnUse" x1="4512.6943" y1="3174.8025" x2="4768.6733" y2="2406.8628" gradientTransform="matrix(-1 0 0 1 5965.3564 0)">
						<stop  offset="0" style="stop-color:#311944"/>
						<stop  offset="1" style="stop-color:#A03976"/>
					</linearGradient>
					<path style="fill:url(#SVGID_00000006675098465654235240000001930089380836611462_);" d="M1414.203,3050.553
						c-3.274,1.335-6.527,2.784-9.704,3.93c-10.741,3.874-21.931-4.39-21.992-15.805c-0.001-0.362-0.004-0.729-0.009-1.103
						c-0.184-16.877-3.615-30.459-6.313-38.96c14.254-0.66,28.508-1.322,42.764-1.983c-3.27,18.926-2.136,32.434,0.892,42.258
						C1421.303,3043.63,1418.797,3048.679,1414.203,3050.553z"/>
					
						<linearGradient id="SVGID_00000125600430422119718120000010430436720386392764_" gradientUnits="userSpaceOnUse" x1="4146.4321" y1="2982.2275" x2="4299.6694" y2="2982.2275" gradientTransform="matrix(-1 0 0 1 5965.3564 0)">
						<stop  offset="0" style="stop-color:#311944"/>
						<stop  offset="1" style="stop-color:#6B3976"/>
					</linearGradient>
					<path style="fill:url(#SVGID_00000125600430422119718120000010430436720386392764_);" d="M1719.261,2933.6h-38.751
						c-9.589,15.465-20.23,37.46-11.702,51.591c5.911,9.791,15.86,7.244,43.837,16.118c39.115,12.41,48.564,26.557,82.036,28.921
						c12.275,0.867,21.24,1.498,23.641-2.874C1825.204,3014.818,1772.078,2972.161,1719.261,2933.6z"/>
					
						<linearGradient id="SVGID_00000047740623668248040310000016822444451609776282_" gradientUnits="userSpaceOnUse" x1="4213.625" y1="3070.8079" x2="4469.6016" y2="2302.8762" gradientTransform="matrix(-1 0 0 1 5965.3564 0)">
						<stop  offset="0" style="stop-color:#311944"/>
						<stop  offset="1" style="stop-color:#A03976"/>
					</linearGradient>
					<path style="fill:url(#SVGID_00000047740623668248040310000016822444451609776282_);" d="M1713.273,2946.56
						c-3.273,1.335-6.528,2.784-9.705,3.929c-10.738,3.874-21.93-4.389-21.99-15.804c-0.003-0.363-0.005-0.73-0.009-1.103
						c-0.184-16.878-3.616-30.46-6.313-38.962c14.254-0.658,28.507-1.32,42.763-1.982c-3.271,18.926-2.136,32.434,0.892,42.257
						C1720.373,2939.637,1717.867,2944.686,1713.273,2946.56z"/>
					
						<linearGradient id="SVGID_00000013874413501243970080000017970394104937618823_" gradientUnits="userSpaceOnUse" x1="4477.7148" y1="2976.832" x2="4659.4697" y2="2401.6084" gradientTransform="matrix(-1 0 0 1 5965.3564 0)">
						<stop  offset="0" style="stop-color:#444B8C"/>
						<stop  offset="0.9964" style="stop-color:#3E4177"/>
					</linearGradient>
					<path style="fill:url(#SVGID_00000013874413501243970080000017970394104937618823_);" d="M1718.842,2913.653
						c29.164-148.1,25.876-270.444,17.976-352.025c-15.28-157.784-23.374-241.372-86.712-318.729
						c-59.544-72.726-114.94-75.244-247.449-198.396c-43.675-40.591-76.662-76.567-97.257-100.04
						c-198.713-58.293-381.998-34.67-462.875,71.901c-9.346,12.316-32.742,39.025-37.267,78.411
						c-10.213,88.867,77.102,195.85,175.082,218.19c124.52,28.394,196.762-99.465,307.085-56.923
						c30.859,11.898,57.023,41.387,109.353,100.363c66.566,75.026,103.988,144.254,118.145,171.955
						c42.157,82.488,74.125,143.381,78.789,222.297c1.083,18.385,1.734,55.528,23.267,95.587
						c16.53,30.75,38.934,51.252,55.603,63.921C1688.002,2911.325,1703.422,2912.49,1718.842,2913.653z"/>
					
						<linearGradient id="SVGID_00000044171817088459584810000011985125413629928856_" gradientUnits="userSpaceOnUse" x1="4497.0259" y1="2421.1255" x2="4937.4312" y2="2511.0039" gradientTransform="matrix(-1 0 0 1 5965.3564 0)">
						<stop  offset="0" style="stop-color:#444B8C"/>
						<stop  offset="0.9964" style="stop-color:#3E4177"/>
					</linearGradient>
					<path style="fill:url(#SVGID_00000044171817088459584810000011985125413629928856_);" d="M1447.596,2991.22
						c-12.001,22.391-35.598,35.622-86.883,26.965c-72.434-82.268-96.372-155.288-104.857-206.72
						c-18.325-111.072,27.709-168.186-14.98-257.651c-27.776-58.214-74.579-91.281-113.735-118.944
						c-94.377-66.678-134.019-40.693-214.67-102.083c-30.274-23.045-102.75-78.212-112.483-169.126
						c-8.46-79.003,35.484-138.104,42.538-147.298c56.781-73.99,163.327-104.015,269.524-76.721
						c14.913,37.64,42.063,96.547,89.878,158.786c60.526,78.782,99.903,92.272,161.781,170.77
						c28.91,36.673,78.265,99.281,104.308,187.811c15.138,51.462,17.101,93.677,0.551,300.529
						C1463.386,2822.293,1456.552,2901.175,1447.596,2991.22z"/>
					
						<linearGradient id="SVGID_00000094600195596555585610000010382874689908001669_" gradientUnits="userSpaceOnUse" x1="1778.1783" y1="1071.4059" x2="574.7341" y2="2664.1982">
						<stop  offset="0" style="stop-color:#FFC444"/>
						<stop  offset="0.2564" style="stop-color:#FFC145"/>
						<stop  offset="0.4611" style="stop-color:#FDB747"/>
						<stop  offset="0.648" style="stop-color:#FBA64A"/>
						<stop  offset="0.823" style="stop-color:#F78E4F"/>
						<stop  offset="0.9903" style="stop-color:#F37056"/>
						<stop  offset="0.9964" style="stop-color:#F36F56"/>
					</linearGradient>
					<path style="fill:url(#SVGID_00000094600195596555585610000010382874689908001669_);" d="M1774.872,1693.741
						c20.325-122.417-269.644-360.266-557.098-314.932c-340.447,53.694-445.9,468.109-453.041,498.074
						c-30.62,128.487-24.561,284.538,21.771,299.371c33.95,10.869,54.781-65.208,136.291-89.458
						c87.266-25.962,132.545,40.666,312.87,79.521c82.072,17.684,174.952,37.696,207.799-4.354
						c33.144-42.433-32.006-100.475-21.043-179.464C1444.952,1820.179,1755.19,1812.281,1774.872,1693.741z"/>
					
						<linearGradient id="SVGID_00000062872476334647693120000000074891503262240673_" gradientUnits="userSpaceOnUse" x1="2612.0288" y1="1820.4297" x2="3870.6936" y2="2675.3711" gradientTransform="matrix(-0.971 -0.2392 -0.2392 0.971 4906.5361 615.507)">
						<stop  offset="0" style="stop-color:#FFC444"/>
						<stop  offset="0.9964" style="stop-color:#F36F56"/>
					</linearGradient>
					<path style="opacity:0.3;fill:url(#SVGID_00000062872476334647693120000000074891503262240673_);" d="M801.341,1974.372
						c32.784-35.673,93.317-72.075,160.425-71.552c87.384,0.681,110.823,63.389,177.299,53.192
						c81.649-12.524,75.526-111.609,160.942-138.065c72.855-22.568,124.088,34.997,206.584,51.902
						c-43.797,28.253-77.318,63.29-84.168,112.648c-10.962,78.989,54.188,137.031,21.043,179.464
						c-32.847,42.051-125.728,22.039-207.799,4.354c-180.325-38.855-225.605-105.482-312.87-79.521
						c-81.51,24.25-102.342,100.327-136.291,89.458c-19.526-6.25-31.871-37.631-37.36-81.407
						C754.89,2047.604,772.588,2005.659,801.341,1974.372z"/>
					
						<linearGradient id="SVGID_00000118393804415173072360000000221325691494843548_" gradientUnits="userSpaceOnUse" x1="3000.4504" y1="1601.9119" x2="3083.6418" y2="1715.9149" gradientTransform="matrix(-0.971 -0.2392 -0.2392 0.971 4906.5361 615.507)">
						<stop  offset="0" style="stop-color:#311944"/>
						<stop  offset="0.2163" style="stop-color:#49204E"/>
						<stop  offset="0.3096" style="stop-color:#532353"/>
						<stop  offset="1" style="stop-color:#A03976"/>
					</linearGradient>
					<path style="fill:url(#SVGID_00000118393804415173072360000000221325691494843548_);" d="M1628.449,1465.544l-12.877,2.772
						c-25.007,5.384-51.081,2.584-74.373-7.987l-31.173-14.148c-6.849-3.106-14.203,3.387-11.811,10.517
						c11.267,33.582,45.28,100.012,133.953,75.343L1628.449,1465.544z"/>
					
						<linearGradient id="SVGID_00000073716737532756935670000005105474129529461140_" gradientUnits="userSpaceOnUse" x1="2130.3118" y1="2377.1106" x2="2004.5326" y2="2057.6541" gradientTransform="matrix(-0.8534 -0.5213 -0.5213 0.8534 4533.4961 669.4702)">
						<stop  offset="0" style="stop-color:#444B8C"/>
						<stop  offset="0.9964" style="stop-color:#26264F"/>
					</linearGradient>
					<path style="fill:url(#SVGID_00000073716737532756935670000005105474129529461140_);" d="M1709.291,1486.238
						c43.705-4.673,80.757-96.249,63.476-111.55c-9.924-8.788-27.275,16.981-72.213,17.443
						c-34.997,0.359-53.437-14.974-71.535-1.965c-8.501,6.109-15.474,17.428-18.047,28.323c-1.325,5.61-1.781,13.4-1.604,28.977
						c0.153,13.822-0.069,13.206,0.08,17.294c0.358,9.822,2.144,27.156,10.453,51.482c4.194-4.149,9.718-9.079,16.619-13.865
						c2.653-1.841,13.146-8.958,24.872-12.997C1682.741,1482.028,1696.757,1487.579,1709.291,1486.238z"/>
					
						<linearGradient id="SVGID_00000131367365239090178170000010344973561792385677_" gradientUnits="userSpaceOnUse" x1="3177.3726" y1="1439.5106" x2="2832.2837" y2="1716.8146" gradientTransform="matrix(-0.971 -0.2392 -0.2392 0.971 4906.5361 615.507)">
						<stop  offset="0" style="stop-color:#311944"/>
						<stop  offset="0.2163" style="stop-color:#49204E"/>
						<stop  offset="0.3096" style="stop-color:#532353"/>
						<stop  offset="1" style="stop-color:#A03976"/>
					</linearGradient>
					<path style="fill:url(#SVGID_00000131367365239090178170000010344973561792385677_);" d="M1606.713,1488.927
						c0,0-0.182,38.195,34.867,56.766c31.381,16.627,77.491-48.31,67.065-74.544c-3.477-8.752-15.127-18.672-27.406-22.192
						c-7.251-2.077-10.928-0.796-22.712-4.422c-10.868-3.344-12.875-6.013-17.17-5.375c-5.374,0.798-12.463,6.503-18.744,29.923
						c-2.165-9.376-7.696-15.871-14.015-16.576c-1.008-0.113-3.948,0.022-6.431,1.439
						C1593.189,1459.076,1594.163,1473.293,1606.713,1488.927z"/>
				</g>
			</g>
			<g>
				<path style="fill:#C47EB7;" d="M2076.593,2865.68c2.107,0,3.949-1.502,4.342-3.612l172.336-926.52
					c0.445-2.4-1.139-4.705-3.539-5.153c-2.382-0.41-4.704,1.139-5.153,3.539l-163.57,879.397v-939.865
					c0-2.443-1.977-4.42-4.42-4.42s-4.42,1.977-4.42,4.42v987.795c0,2.283,1.74,4.191,4.014,4.403
					C2076.321,2865.675,2076.459,2865.68,2076.593,2865.68z"/>
				<path style="fill:#C47EB7;" d="M2976.107,2893.397c0.121,0,0.246-0.004,0.367-0.013c2.292-0.19,4.057-2.106,4.057-4.407
					v-907.244c0-2.443-1.977-4.42-4.42-4.42s-4.419,1.977-4.419,4.42v853.639l-142.391-857.649c-0.397-2.408-2.62-4.057-5.084-3.634
					c-2.408,0.397-4.035,2.676-3.634,5.084l151.17,910.529C2972.106,2891.848,2973.966,2893.397,2976.107,2893.397z"/>
				<path style="fill:#C47EB7;" d="M760.958,3193.631c2.063,0,3.885-1.446,4.321-3.504l210.909-998.853
					c0.505-2.391-1.023-4.734-3.41-5.24c-2.43-0.513-4.735,1.023-5.24,3.41l-202.164,957.445v-957.6c0-2.443-1.977-4.42-4.419-4.42
					c-2.443,0-4.42,1.977-4.42,4.42v999.923c0,2.262,1.709,4.161,3.962,4.394C760.652,3193.623,760.803,3193.631,760.958,3193.631z"
					/>
				<path style="fill:#C47EB7;" d="M1810.111,3368.276c0.147,0,0.298-0.009,0.449-0.021c2.257-0.229,3.975-2.128,3.975-4.398
					V2360.01c0-2.443-1.977-4.419-4.42-4.419s-4.42,1.977-4.42,4.419v959.918l-222.467-1094.358c-0.483-2.391-2.84-3.937-5.21-3.449
					c-2.391,0.484-3.936,2.818-3.448,5.209l231.216,1137.407C1806.204,3366.813,1808.035,3368.276,1810.111,3368.276z"/>
				<g>
					<path style="fill:#B7C0CE;" d="M751.579,2177.067v17.233l1060.944,173.063l1173.165-381.797c0-5.744,0-11.489,0-17.233
						C2801.958,1914.162,751.579,2177.067,751.579,2177.067z"/>
					<polygon style="fill:#D8DEE8;" points="2011.37,1879.077 751.579,2177.067 1812.523,2350.13 2985.688,1968.332 					"/>
				</g>
			</g>
			
				<linearGradient id="SVGID_00000014611238275006863300000013212014398399922572_" gradientUnits="userSpaceOnUse" x1="2107.1125" y1="1321.8506" x2="906.1884" y2="2911.3074">
				<stop  offset="0" style="stop-color:#FFC444"/>
				<stop  offset="0.2564" style="stop-color:#FFC145"/>
				<stop  offset="0.4611" style="stop-color:#FDB747"/>
				<stop  offset="0.648" style="stop-color:#FBA64A"/>
				<stop  offset="0.823" style="stop-color:#F78E4F"/>
				<stop  offset="0.9903" style="stop-color:#F37056"/>
				<stop  offset="0.9964" style="stop-color:#F36F56"/>
			</linearGradient>
			<path style="fill:url(#SVGID_00000014611238275006863300000013212014398399922572_);" d="M1693.218,1537.61
				c82.664,42.997,272.157,288.922,205.299,392.097c-66.858,103.174-350.021-116.932-350.021-116.932L1693.218,1537.61z"/>
			
				<linearGradient id="SVGID_00000148637465648689888140000006122825501338859398_" gradientUnits="userSpaceOnUse" x1="2097.9338" y1="1333.9976" x2="940.5656" y2="2865.8069">
				<stop  offset="0" style="stop-color:#FFC444"/>
				<stop  offset="0.2564" style="stop-color:#FFC145"/>
				<stop  offset="0.4611" style="stop-color:#FDB747"/>
				<stop  offset="0.648" style="stop-color:#FBA64A"/>
				<stop  offset="0.823" style="stop-color:#F78E4F"/>
				<stop  offset="0.9903" style="stop-color:#F37056"/>
				<stop  offset="0.9964" style="stop-color:#F36F56"/>
			</linearGradient>
			<path style="opacity:0.3;fill:url(#SVGID_00000148637465648689888140000006122825501338859398_);" d="M1693.217,1537.609
				c82.664,42.997,272.157,288.923,205.301,392.097c-30.034,46.348-103.718,27.458-175.774-7.41
				c-88.347-42.751-103.99-87.996-81.335-105.721c17.937-14.034,22.053-36.197,23.721-45.186
				c7.216-38.864-12.372-63.321-19.296-91.971C1638.753,1650.126,1642.12,1604.902,1693.217,1537.609z"/>
			
				<linearGradient id="SVGID_00000003098884748294426630000017051291477602635959_" gradientUnits="userSpaceOnUse" x1="1805.1655" y1="1520.9459" x2="1716.6774" y2="1494.3995">
				<stop  offset="0" style="stop-color:#311944"/>
				<stop  offset="0.2163" style="stop-color:#49204E"/>
				<stop  offset="0.3096" style="stop-color:#532353"/>
				<stop  offset="1" style="stop-color:#A03976"/>
			</linearGradient>
			<path style="fill:url(#SVGID_00000003098884748294426630000017051291477602635959_);" d="M1703.841,1537.61
				c0,0,49.009-48.441,20.369-79.412c-28.641-30.971-3.438,0-20.369,39.706S1676.718,1518.21,1703.841,1537.61z"/>
			
				<linearGradient id="SVGID_00000003107082097156727190000018208095799251326887_" gradientUnits="userSpaceOnUse" x1="2041.6404" y1="1384.7128" x2="1121.1482" y2="2603.01">
				<stop  offset="0" style="stop-color:#FFC444"/>
				<stop  offset="0.2564" style="stop-color:#FFC145"/>
				<stop  offset="0.4611" style="stop-color:#FDB747"/>
				<stop  offset="0.648" style="stop-color:#FBA64A"/>
				<stop  offset="0.823" style="stop-color:#F78E4F"/>
				<stop  offset="0.9903" style="stop-color:#F37056"/>
				<stop  offset="0.9964" style="stop-color:#F36F56"/>
			</linearGradient>
			<path style="fill:url(#SVGID_00000003107082097156727190000018208095799251326887_);" d="M1685.653,1528.988
				c0,0,4.425,227.12,63.417,315.609c58.993,88.489,139.717,112.369,147.481,45.719c7.763-66.649-36.548-243.798-186.402-352.706
				L1685.653,1528.988z"/>
			
				<linearGradient id="SVGID_00000138547117642389652310000002167443351174230684_" gradientUnits="userSpaceOnUse" x1="1963.5389" y1="2152.925" x2="1698.3126" y2="2073.3572">
				<stop  offset="0" style="stop-color:#311944"/>
				<stop  offset="0.2163" style="stop-color:#49204E"/>
				<stop  offset="0.3096" style="stop-color:#532353"/>
				<stop  offset="1" style="stop-color:#A03976"/>
			</linearGradient>
			<path style="fill:url(#SVGID_00000138547117642389652310000002167443351174230684_);" d="M1645.366,2060.769
				c0,0,31.807-39.939,82.662,0c39.324,30.883-21.958,10.775-33.575,17.863C1654.478,2103.023,1614.955,2076.824,1645.366,2060.769z
				"/>
			
				<linearGradient id="SVGID_00000047023476266372388430000012218546407699014065_" gradientUnits="userSpaceOnUse" x1="1953.2488" y1="1026.381" x2="-123.7766" y2="3775.3823">
				<stop  offset="0" style="stop-color:#FFC444"/>
				<stop  offset="0.2564" style="stop-color:#FFC145"/>
				<stop  offset="0.4611" style="stop-color:#FDB747"/>
				<stop  offset="0.648" style="stop-color:#FBA64A"/>
				<stop  offset="0.823" style="stop-color:#F78E4F"/>
				<stop  offset="0.9903" style="stop-color:#F37056"/>
				<stop  offset="0.9964" style="stop-color:#F36F56"/>
			</linearGradient>
			<path style="fill:url(#SVGID_00000047023476266372388430000012218546407699014065_);" d="M1044.112,1630.75
				c0,0-68.589,589.708,593.974,457.82v-22.503c0,0-404.641-143.305-297.996-389.598c0,0,81.513-217.517-79.241-243.343
				C1100.095,1407.299,1044.112,1630.75,1044.112,1630.75z"/>
			<g>
				
					<linearGradient id="SVGID_00000024721317527784694330000010106864396500366750_" gradientUnits="userSpaceOnUse" x1="3275.2847" y1="1722.7297" x2="4086.7656" y2="1722.7297" gradientTransform="matrix(-1 0 0 1 5965.3564 0)">
					<stop  offset="0" style="stop-color:#AA80F9"/>
					<stop  offset="0.9964" style="stop-color:#6165D7"/>
				</linearGradient>
				<path style="fill:url(#SVGID_00000024721317527784694330000010106864396500366750_);" d="M1878.591,2105.144l41.928-553.255
					c0.663-8.754,8.158-16.917,18.093-19.711l717.624-201.726c6.426-1.807,18.744-0.038,23.634,2.996
					c4.889,3.035,10.437,2.38,10.195,8.023l-29.994,511.284c-0.499,8.503-7.493,16.567-17.068,19.677l-748.991,243.306
					L1878.591,2105.144z"/>
				
					<linearGradient id="SVGID_00000135665653577711131820000008433026445684753324_" gradientUnits="userSpaceOnUse" x1="3834.229" y1="1480.3909" x2="3415.1768" y2="2117.1858" gradientTransform="matrix(-1 0 0 1 5965.3564 0)">
					<stop  offset="0" style="stop-color:#AA80F9"/>
					<stop  offset="0.9964" style="stop-color:#6165D7"/>
				</linearGradient>
				<path style="fill:url(#SVGID_00000135665653577711131820000008433026445684753324_);" d="M1894.011,2115.736l43.448-557.886
					c0.68-8.745,8.168-16.889,18.089-19.677l717.656-201.736c6.426-1.807,12.991-1.095,17.882,1.94
					c4.89,3.034,7.587,8.068,7.346,13.714l-21.605,506.214c-0.371,8.702-7.582,16.997-17.429,20.051L1894.011,2115.736z"/>
				
					<linearGradient id="SVGID_00000098906695323249890890000008553434967455601038_" gradientUnits="userSpaceOnUse" x1="3282.0117" y1="1910.687" x2="4071.3457" y2="1910.687" gradientTransform="matrix(-1 0 0 1 5965.3564 0)">
					<stop  offset="0" style="stop-color:#AA80F9"/>
					<stop  offset="0.9964" style="stop-color:#6165D7"/>
				</linearGradient>
				<path style="opacity:0.3;fill:url(#SVGID_00000098906695323249890890000008553434967455601038_);" d="M1894.011,2115.735
					l765.388-237.378c9.848-3.054,17.059-11.35,17.429-20.051l6.517-152.667c-227.209,144.981-513.296,200.964-779.567,284.69
					L1894.011,2115.735z"/>
				<path style="fill:#FFFFFF;" d="M2274.867,2132.726l-27.152,16.862c0,0-128.9-57.163-136.618-60.592
					c-1.226-0.543-6.525-7.144,0-9.86c34.542-14.378,166.342-48.446,166.342-48.446l68.596,32.583L2274.867,2132.726z"/>
				
					<linearGradient id="SVGID_00000176734483355461583000000000296901043658951615_" gradientUnits="userSpaceOnUse" x1="3818.6367" y1="2017.1693" x2="3602.9497" y2="2146.5818" gradientTransform="matrix(-1 0 0 1 5965.3564 0)">
					<stop  offset="0" style="stop-color:#AA80F9"/>
					<stop  offset="0.9964" style="stop-color:#6165D7"/>
				</linearGradient>
				<path style="fill:url(#SVGID_00000176734483355461583000000000296901043658951615_);" d="M2274.867,2122.864l-27.152,16.863
					c0,0-128.9-57.161-136.618-60.591c-7.716-3.43,166.342-58.305,166.342-58.305l68.596,32.582L2274.867,2122.864z"/>
				<path style="fill:#FFFFFF;" d="M2408.913,1695.72c0,0,65.165,348.689,72.025,368.124
					c6.332,17.943-178.229,76.139-222.361,87.172c-3.67,0.918-9.138-0.689-10.86-1.429c-12.577,1.144,46.015-420.999,46.015-420.999
					l4.287-0.857L2408.913,1695.72z"/>
				
					<linearGradient id="SVGID_00000049915503433959221640000007818191337825161101_" gradientUnits="userSpaceOnUse" x1="3672.179" y1="1752.8361" x2="3516.0618" y2="2410.1721" gradientTransform="matrix(-1 0 0 1 5965.3564 0)">
					<stop  offset="0" style="stop-color:#AA80F9"/>
					<stop  offset="0.9964" style="stop-color:#6165D7"/>
				</linearGradient>
				<path style="fill:url(#SVGID_00000049915503433959221640000007818191337825161101_);" d="M2408.913,1695.72
					c0,0,76.597,349.833,83.457,369.267c6.859,19.434-213.786,82.314-233.222,85.743c-12.574,1.143,38.871-423,38.871-423
					L2408.913,1695.72z"/>
			</g>
		</g>
		<g>
			
				<linearGradient id="SVGID_00000121983081875326823760000005309572808664298418_" gradientUnits="userSpaceOnUse" x1="2401.9395" y1="409.607" x2="1825.292" y2="1356.4464">
				<stop  offset="0" style="stop-color:#FF9085"/>
				<stop  offset="1" style="stop-color:#FB6FBB"/>
			</linearGradient>
			<path style="fill:url(#SVGID_00000121983081875326823760000005309572808664298418_);" d="M1732.384,1320.21
				c-45.217-13.421-197.717-64.633-261.757-204.295c-91.964-200.557,64.972-438.521,212.609-549.631
				c268.319-201.934,605.303-59.659,633.967-47.001c138.482,61.154,410.423,238.367,376.809,473.896
				c-30.767,215.58-302.035,371.519-497.475,343.872c-168.298-23.808-270.394-182.341-377.073-135.706
				C1768.748,1223.515,1744.566,1280.002,1732.384,1320.21z"/>
			<path style="fill:#FFFFFF;" d="M2403.891,840.666c19.951-31.041,10.981-73.597-4.454-104.459
				c-20.334-40.656-55.834-72.288-90.458-100.636c-3.683-3.015-7.406-5.886-11.155-8.681c-11.958-23.271-29.325-41.748-56.459-48.03
				c-15.511-3.592-32.021-3.498-48.443-1.133c-2.905-0.716-5.833-1.397-8.788-2.044c-53.438-11.692-109.015-18.989-163.638-21.586
				c-57.266-2.723-114.895,1.963-169.828,19.024c-34.843,10.821-69.945,27.37-89.967,59.353
				c-19.466,31.094-23.591,71.894-10.578,106.16c-39.821,33.51-74.229,73.881-93.744,119.969
				c-13.925,32.891-19.319,71.34-4.074,104.784c7.818,17.154,20.264,30.416,34.931,41.961
				c20.789,16.364,45.416,35.045,22.625,62.727c-22.69,27.559-67.922,38.233-71.77,79.743c-3.101,33.47,29.375,56.769,54.78,71.543
				c1.815,1.055,3.44-1.734,1.643-2.81c-21.085-12.625-46.349-30.127-51.539-56.031c-6.323-31.568,24.152-53.244,46.669-68.399
				c24.901-16.761,50.983-44.265,24.906-72.52c-15.747-17.063-36.579-26.927-49.46-47.091
				c-12.498-19.562-16.637-42.839-14.235-65.743c5.315-50.68,38.17-94.167,72.265-129.854c9.791-10.247,20.132-19.978,30.875-29.277
				c0.231,0.481,0.441,0.975,0.678,1.453c-12.076,9.79-23.111,20.561-32.517,32.584c-18.559,23.719-29.638,56.009-15.77,84.764
				c12.625,26.179,39.198,42.276,65.459,54.517c-8.028,33.253-10.712,68.613-1.437,101.763c9.876,35.293,33.76,63.781,63.679,84.239
				c61.63,42.145,143.614,47.414,214.969,32.953c32.832-6.654,64.668-18.293,93.117-35.319
				c15.104,16.559,33.174,31.852,52.46,35.752c9.09,1.838,22.923,1.37,24.851-9.855c1.926-11.208-9.67-27.065-15.879-37.929
				c20.094,12.455,42.32,20.921,66.679,22.766c59.395,4.497,100.276-33.917,114.882-88.882
				c13.903-52.318,23.992-118.801,9.38-174.417C2398.003,848.638,2401.17,844.9,2403.891,840.666z M2271.371,609.056
				c0.151,0.161,0.287,0.336,0.438,0.498c-14.177-8.362-28.906-15.378-44.331-21.162
				C2243.875,590.222,2259.248,596.209,2271.371,609.056z M2374.584,832.421c2.34,5.359,4.331,10.883,6.005,16.549
				c-3.824,2.974-7.953,5.546-12.309,7.78c-1.324-6.039-2.888-11.914-4.5-17.475C2367.406,837.05,2371.009,834.77,2374.584,832.421z
				 M2358.756,860.933c-19.142,7.315-41.323,9.445-61.757,9.925c20.144-6.675,39.327-15.589,57.794-26.235
				C2356.364,850.049,2357.702,855.497,2358.756,860.933z M2358.75,903.662c-10.729,41.628-72.022,41.32-105.902,49.097
				c-11.513,2.643-23.372,6.348-34.37,11.514c-16.021-16.682-44.576-21.125-65.815-24.087c-11.702-1.632-23.391-3.047-34.95-4.682
				c20.342-7.929,39.843-18.146,56.398-31.405c10.188-5.088,20.26-10.811,29.81-17.21c17.045-1.167,33.998-2.974,50.736-5.754
				c22.838,2.158,46.028,1.45,68.553-1.26c12.226-1.471,25.092-3.848,37.224-7.963
				C2361.634,882.796,2361.37,893.501,2358.75,903.662z M2218.538,990.969c2.169,22.519-14.289,44.96-31.336,62.545
				c-4.446-15.259-5.819-31.03,0.621-45.756c5.667-12.965,15.429-22.277,26.977-29.107
				C2216.768,982.282,2218.093,986.348,2218.538,990.969z M1785.212,748.194c2.861-4.138,5.904-8.236,9.033-12.31
				c25.294-15.037,52.378-27.222,79.866-37.454c27.708-10.315,60.348-23.107,90.26-22.221c10.475,0.31,18.184,2.665,23.785,6.457
				c-0.495-0.193-0.973-0.42-1.472-0.607c-35.443-13.207-68.942,2.593-94.757,27.298c-25.868,24.756-47.157,56.044-65.758,86.451
				c-2.093,3.42-4.126,6.887-6.153,10.356c-16.35-11.722-32.213-25.591-44.609-41.719
				C1778.695,758.202,1782.166,752.602,1785.212,748.194z M2253.909,799.837c-1.006-13.096-2.565-26.21-3.288-39.261
				c-0.007-0.117-0.005-0.232-0.012-0.349c0.748,2.603,1.458,5.22,2.033,7.887C2255.063,779.339,2255.362,789.905,2253.909,799.837z
				 M2233.433,844.444c-5.206-2.26-10.022-5.195-14.786-8.305c11.563-49.603-10.194-104.786-54.412-130.553
				c-4.183-20.846-11.687-40.691-23.759-58.024c4.71,2.129,9.396,4.367,14.035,6.829c33.357,17.703,65.909,44.433,84.633,78.268
				c-1.053,8.217-1.621,16.529-1.246,25.07c1.092,24.713,6.042,49.889,4.057,74.605
				C2239.425,836.52,2236.575,840.555,2233.433,844.444z M2110.448,946.603c23.267,3.143,74.994,2.533,97.469,23.296
				c-16.329,9.861-29.413,23.862-34.181,43.966c-3.12,13.156-1.526,26.811,2.013,39.845c-3.101-2.939-6.125-5.937-9.059-8.979
				c-25.242-26.176-50.319-59.638-62.489-95.942c0.784-0.91,1.538-1.844,2.306-2.768
				C2107.821,946.213,2109.128,946.424,2110.448,946.603z M1909.414,851.84c0.332-7.244,1.227-14.464,2.63-21.62
				c1.816-0.253,3.624-0.567,5.449-0.771c16.068-1.801,30.903,2.347,44.357,9.758c-1.909,8.746-3.217,17.522-3.634,26.193
				C1941.675,861.813,1925.377,857.341,1909.414,851.84z M1824.293,821.305c3.587,2.396,7.194,4.734,10.807,6.987
				c3.452,2.154,6.94,4.211,10.444,6.224c-10.14,2.538-20.852,4.835-31.278,5.734c1.448-2.884,2.91-5.743,4.392-8.556
				C1820.485,828.225,1822.39,824.764,1824.293,821.305z M1829.222,812.533c17.554-30.745,38.076-60.624,61.926-86.365
				c15.834-17.09,35.206-33.533,58.95-37.222c17.412-2.706,33.783,2.629,48.398,11.37c-2.738,3.783-5.378,7.634-7.903,11.551
				c-5.376,2.831-10.588,5.863-15.589,9.094c-36.532,23.607-61.241,59.608-71.229,99.233c-11.699,2.231-23.241,5.535-33.774,8.033
				c-3.13,0.742-6.461,1.604-9.926,2.516C1849.566,825.272,1839.27,819.224,1829.222,812.533z M2137.287,663.079
				c6.457,11.423,11.188,23.634,14.511,36.32c-39.673-16.916-86.561-15.306-128.327-1.484c6.208-14.589,16.214-27.466,29.42-36.928
				c15.907-11.396,36.219-19.231,57.182-24.756c3.132,0.927,6.252,1.919,9.36,2.983
				C2126.092,646.021,2132.109,653.916,2137.287,663.079z M2208.073,829.2c-2.454-1.559-4.954-3.073-7.552-4.47
				c-11.742-6.312-24.958-9.018-38.185-8.572c0.867-4.678,1.674-9.338,2.36-13.952c3.897-26.179,5.426-54.516,1.966-81.795
				c9.139,6.336,17.271,14.113,23.818,23.525C2207.141,767.886,2213.417,800.235,2208.073,829.2z M2092.021,864.497
				c-1.975,4.593-3.532,9.241-4.769,13.923c-23.53-0.247-47.079-1.383-70.393-3.805c-11.709-14.781-25.72-29.303-41.834-40.127
				c5.925-23.909,16.164-47.499,24.481-69.248c1.714-4.479,3.547-9.384,5.287-14.538c2.962,19.862,12.198,53.604,31.191,63.365
				c17.93,9.215,36.59-8.587,18.206-23.055c-6.427-5.058-15.582,3.973-9.085,9.085c6.526,4.538,4.097,4.203-7.289-1.007
				c-2.454-2.976-4.571-6.168-6.353-9.578c-3.224-5.745-5.885-12.065-8.176-18.223c-4.922-13.228-7.548-27.256-7.003-41.393
				c0.2-5.14,0.833-10.222,1.877-15.193c31.867,27.167,55.468,62.907,85.419,92.077c7.048,6.865,14.355,13.465,21.935,19.709
				C2110.764,834.979,2099.029,848.197,2092.021,864.497z M2000.353,718.982c-2.232,20.731-12.252,44.436-18.505,60.008
				c-4.1,10.211-8.341,21.056-12.097,32.208c-0.758-14.524,1.222-29.514,6.189-44.56c5.33-16.144,12.818-31.674,21.979-46.4
				C1998.73,719.819,1999.536,719.391,2000.353,718.982z M1960.034,825.887c-4.691-2.241-9.517-4.166-14.502-5.64
				c-9.735-2.879-20.182-2.989-30.722-1.763c2.374-8.407,5.489-16.674,9.393-24.699c12.502-25.705,31.88-46.745,55.092-62.478
				C1963.684,761.409,1955.421,794.099,1960.034,825.887z M2001.518,872.836c-3.594-0.467-7.182-0.977-10.762-1.512
				c-4.521-6.476-8.393-13.238-11.494-20.268C1987.358,857.634,1994.792,865.138,2001.518,872.836z M2011.564,885.114
				c5.195,6.757,10.001,13.749,14.574,20.883c-5.249-3.519-10.359-7.466-15.304-11.931c-3.64-3.285-6.983-6.738-10.166-10.276
				C2004.293,884.264,2007.926,884.705,2011.564,885.114z M2044.804,916.478c-5.884-10.243-12.149-20.264-19.025-29.931
				c19.659,1.778,39.433,2.715,59.174,3.043c-1.587,10.73-1.488,21.585-0.054,32.391c-5.402,1.197-11.247,2.304-17.349,3.21
				C2059.784,922.814,2052.193,919.948,2044.804,916.478z M2097.427,918.953c-0.586-5.113-0.876-10.255-0.82-15.418
				c0.05-4.657,0.488-9.279,1.235-13.823c8.186,0.033,16.362-0.016,24.514-0.15c1.621-0.027,3.255-0.054,4.881-0.08
				c-3.812,8.374-8.07,16.656-12.78,24.659C2108.614,915.934,2102.922,917.53,2097.427,918.953z M2104.621,878.455
				c-1.394,0.009-2.788,0.006-4.182,0.01c5.729-18.825,17.846-34.986,35.757-43.561c2.811,2.11,5.666,4.152,8.55,6.153
				c-0.833,2.953-1.684,5.883-2.565,8.765c-2.828,9.246-6.182,18.807-10.081,28.378
				C2122.901,878.314,2113.726,878.393,2104.621,878.455z M2155.044,847.868c11.975,7.495,24.566,13.983,37.846,19.138
				c-2.169,3.316-4.512,6.499-7.015,9.553c-13.58,0.74-27.185,1.188-40.754,1.442
				C2148.921,868.096,2152.236,858.015,2155.044,847.868z M2163.057,839.974c-1.724-1.05-3.417-2.139-5.108-3.231
				c0.655-2.698,1.255-5.392,1.847-8.086c16.148-1.12,30.941,4.1,44.835,13.323c0.064,0.042,0.125,0.083,0.188,0.124
				c-1.686,5.249-3.772,10.227-6.179,14.972C2186.373,852.574,2174.469,846.924,2163.057,839.974z M2150.645,817.375
				c-4.885,0.873-9.599,2.184-14.109,3.903c-23.883-19.121-44.708-42.032-64.413-65.358c-13.621-16.125-27.927-33.591-44.354-48.094
				c25.895-8.31,53.567-11.292,80.338-8.303c16.211,1.81,32.342,6.283,46.762,13.767
				C2160.94,747.189,2157.928,783.638,2150.645,817.375z M1901.246,831.944c-0.941,5.366-1.599,10.782-1.999,16.226
				c-8.371-3.151-16.639-6.603-24.792-10.38C1883.35,835.633,1892.265,833.597,1901.246,831.944z M1970.625,860.37
				c1.361,2.812,2.821,5.608,4.437,8.38c-1.618-0.292-3.228-0.609-4.842-0.917C1970.28,865.349,1970.417,862.861,1970.625,860.37z
				 M1983.405,881.266c2.053,2.74,4.198,5.464,6.537,8.149c14.061,16.137,30.4,28.002,48.29,36.775
				c0.233,0.415,0.459,0.835,0.69,1.252c-33.136,0.006-64.991-10.502-68.38-48.442
				C1974.818,879.802,1979.104,880.568,1983.405,881.266z M2067.323,937.518c1.001,0.302,2.011,0.589,3.019,0.878
				c-4.091,1.014-8.145,1.959-12.146,2.838c-0.426-0.831-0.852-1.664-1.279-2.494C2060.391,938.4,2063.864,938,2067.323,937.518z
				 M2131.358,908.53c3.32-6.274,6.354-12.718,9.179-19.268c11.375-0.198,22.8-0.441,34.228-0.85
				c-1.098,1.026-2.213,2.038-3.347,3.031C2158.298,898.099,2144.684,903.78,2131.358,908.53z M2209.8,860.823
				c0.765-1.541,1.516-3.093,2.216-4.682c1.08-2.448,2.032-4.931,2.927-7.43c3.184,1.997,6.405,3.853,9.718,5.507
				c-2.833,2.858-5.791,5.641-8.909,8.319C2213.761,861.991,2211.775,861.426,2209.8,860.823z M2248.126,680.997
				c-1.478,10.823-3.702,21.358-5.711,31.883c-26.207-37.155-69.259-65.447-111.085-81.497c12.177-2.374,24.154-4.109,35.189-5.421
				c18.668-2.218,39.324-3.534,57.408,2.643C2248.186,636.89,2251.298,657.778,2248.126,680.997z M2086.801,618.868
				c-71.837-12.47-149.35,11.134-215.702,43.085c24.618-17.787,51.08-32.513,77.584-42.468
				c44.913-16.869,98.613-22.292,140.434-2.044C2088.343,617.914,2087.571,618.387,2086.801,618.868z M1836.516,690.059
				c48.92-27.334,102.325-46.976,156.48-58.092c26.799-5.501,53.381-6.698,79.379-3.546c-18.929,13.276-36.471,28.551-52.118,45.392
				c-4.352,4.683-8.562,9.563-12.627,14.58c-2.809-5.413-6.932-10.275-12.763-14.299c-26.504-18.29-66.244-4.293-93.888,4.265
				c-27.903,8.638-57.73,19.278-85.974,33.059C1821.83,704.085,1828.998,696.933,1836.516,690.059z M1815.031,814.906
				c-4.721,8.416-9.226,16.964-13.474,25.646c-8.068-0.391-15.7-2.001-22.404-5.524c-22.696-11.926-18.199-38.561-8.424-60.903
				C1783.188,789.779,1798.658,803.189,1815.031,814.906z M1809.57,849.888c3.766-0.187,7.488-0.513,11.059-0.944
				c12.81-1.543,25.4-4.304,37.944-7.307c13.105,6.784,26.535,12.656,40.22,17.745c-0.095,25.126,5.678,50.554,18.04,74.283
				c3.089,5.931,6.603,11.757,10.505,17.342c-48.647-3.628-96.49-15.553-142.123-35.948
				C1791.193,892.563,1799.798,870.487,1809.57,849.888z M1924.328,923.85c-9.359-19.262-14.327-39.93-14.97-60.7
				c15.997,5.431,32.316,9.833,48.86,13.376c0.031,0.697,0.031,1.399,0.078,2.093c3.363,50.463,43.74,62.892,87.178,60.959
				c0.676,1.292,1.346,2.589,2.013,3.887c-0.88,0.174-1.768,0.354-2.64,0.522c-34.244,6.595-68.653,9.207-102.749,7.837
				C1935.153,943.366,1929.195,933.864,1924.328,923.85z M2052.792,953.956c2.88,5.809,5.718,11.644,8.52,17.5
				c-12.43,7.562-26.266,12.782-41.647,14.695c-26.466,3.292-49.032-6.43-66.771-22.836
				C1986.136,963.835,2019.583,960.655,2052.792,953.956z M2063.475,951.69c8.65-1.941,17.49-4.178,26.359-6.768
				c0.21,0.71,0.445,1.416,0.666,2.125c-6.235,6.827-12.98,13.04-20.266,18.426C2068.002,960.867,2065.75,956.273,2063.475,951.69z
				 M2078.731,973.024c5.633-4.321,10.899-9.055,15.917-14.04c9.645,25.01,24.508,48.55,39.69,68.165
				c11.167,14.427,23.657,28.538,37.448,41.114c-0.77,0.691-1.552,1.401-2.296,2.061c-8.012,7.122-16.425,13.483-25.136,19.286
				c-6.601-7.155-12.835-14.653-18.458-22.477c-20.428-28.424-35.564-59.958-50.745-91.484
				C2076.359,974.789,2077.56,973.922,2078.731,973.024z M2252.887,869.487c-7.623-0.809-15.175-1.968-22.638-3.49
				c2.366-2.256,4.623-4.59,6.82-6.964c1.895,0.507,3.831,0.942,5.844,1.255c3.333,0.519,6.721-0.806,7.691-4.367
				c1.785-6.544,2.873-13.126,3.509-19.729c8.385-14.576,13.357-30.886,13.367-49.017c0.01-20.789-5.53-40.189-14.945-57.918
				c2.904-19.155,7.955-37.919,9.258-57.602c2.852-43.104-29.66-59.581-68.293-59.966c-25.318-0.252-51.365,3.826-76.525,10.431
				c-1.935-1.577-3.904-3.076-5.903-4.508c17.427-9.118,35.444-16.416,53.454-21.558c9.193-2.625,19.032-4.979,29.041-6.507
				c29.836,7.672,58.578,18.632,84.399,36.436c3.335,2.299,6.674,4.685,10.011,7.111c10.684,20.833,16.103,45.075,21.131,67.086
				c6.679,29.238,12.983,57.758,23.817,85.788c5.461,14.127,12.385,30.067,18.022,46.553
				C2320.565,850.404,2288.376,863.398,2252.887,869.487z M1751.32,705.195c-3.511-47.774,22.266-89.137,64.693-109.51
				c100.859-48.434,224.907-33.93,331.116-15.81c6.426,1.096,12.843,2.271,19.237,3.535c-12.976,3.616-25.52,8.228-37.031,13.159
				c-9.858,4.224-19.506,8.995-28.906,14.238c-49.792-28.257-115.096-18.425-166.193,3.252
				c-38.337,16.264-76.713,41.815-109.154,72.229c-22.967,13.34-45.994,28.836-67.642,46.323
				C1754.211,723.956,1752.03,714.841,1751.32,705.195z M1761.215,741.542c12.252-10.179,25.016-19.778,38.262-28.732
				c-3.647,4.173-7.209,8.385-10.597,12.666c-9.328,5.51-18.318,11.449-26.85,17.852
				C1761.738,742.743,1761.496,742.133,1761.215,741.542z M1711.751,827.505c4.936-28.278,25.885-50.962,48.381-68.56
				c1.062,1.749,2.147,3.482,3.285,5.181c-9.851,19.802-15.695,42.974-5.91,63.103c7.768,15.979,23.296,21.514,39.59,22.6
				c-8.803,19.032-16.312,38.647-22.016,58.758c-0.151,0.534-0.29,1.075-0.438,1.61
				C1741.42,894.111,1704.485,869.131,1711.751,827.505z M2073.521,1122.054c-80.589,23.525-182.486,20.826-248.904-36.599
				c-49.378-42.692-55.083-101.947-42.039-159.679c2.593,1.131,5.172,2.244,7.706,3.321c47.105,20.024,96.358,31.054,146.244,33.668
				c15.589,17.939,35.802,31.606,59.887,34.737c24.274,3.156,48.85-3.53,69.714-15.959c15.78,33.186,31.523,66.384,53.668,95.672
				c4.342,5.742,9.287,12.151,14.725,18.635C2115.597,1107.129,2095.218,1115.721,2073.521,1122.054z M2192.929,1096.583
				c3.443,7.202,10.249,16.208,12.259,23.831c6.457,24.519-36.817-7.533-42.296-12.47c-3.533-3.185-7.005-6.485-10.409-9.871
				c9.938-6.62,19.386-13.956,28.245-22.028c1.441,1.193,2.892,2.369,4.361,3.524
				C2187.579,1085.296,2190.237,1090.953,2192.929,1096.583z M2379.774,989.583c-8.937,49.581-25.92,101.537-82.368,111.309
				c-39.31,6.804-75.164-9.107-105.076-32.776c-0.329-0.813-0.65-1.629-0.968-2.448c6.93-7.212,13.468-14.876,19.442-23.132
				c12.65-17.481,25.013-41.336,17.052-63.331c-0.75-2.073-1.668-4.001-2.68-5.849c6.198-2.748,12.669-4.978,19.145-6.796
				c35.199-9.877,80.226-8.103,109.164-33.37c18.816-16.428,20.596-41.251,16.911-65.166c4.613-2.057,9.064-4.402,13.227-7.154
				C2392.624,902.609,2386.917,949.947,2379.774,989.583z M2382.605,820.029c-1.443-2.857-5.878-4.062-8.536-2.239
				c-4.661,3.199-9.358,6.289-14.097,9.262c-10.248-31.485-24.241-61.52-31.86-93.877c-5.897-25.039-10.969-57.142-21.399-85.759
				c27.477,22.139,53.39,48.223,72.004,76.668c20.346,31.091,38.46,82.675,11.948,115.13
				C2388.381,832.614,2385.723,826.196,2382.605,820.029z"/>
		</g>
	</g>
</g>
</svg>
