<?xml version="1.0" encoding="utf-8"?>
<!-- Generator: Adobe Illustrator 27.5.0, SVG Export Plug-In . SVG Version: 6.00 Build 0)  -->
<svg version="1.1" xmlns="http://www.w3.org/2000/svg" xmlns:xlink="http://www.w3.org/1999/xlink" x="0px" y="0px"
	 viewBox="0 0 3710 3710" style="enable-background:new 0 0 3710 3710;" xml:space="preserve">
<g id="Illustration">
	<g>
		<path style="fill:#F4F7FA;" d="M3213.821,1652.104c-75.893-496.755-387.054-1107.054-1001.786-1170.922
			c0,0-466.734-56.771-926.831,29.271c-273.068,51.066-512.509,203.078-664.017,421.558
			c-151.51,218.48-202.118,484.886-140.698,738.872c39.892,164.966,66.849,335.699,59.451,505.211
			c-12.876,295.02-5.468,570.4,280.843,746.342c255.642,157.097,577.371,295.65,884.306,319.918
			c208.591,16.492,442.511-10.196,643.554-64.503C3373.196,2901.087,3289.714,2148.858,3213.821,1652.104z"/>
		<g>
			<g>
				<path style="fill:#97A6B7;" d="M2734.282,712.792v2183.243c0,27.398-19.484,50.595-45.282,51.796l-1671.454,78.272
					c-29.677,1.359-53.24-21.398-53.24-50.835V630.159c0-29.437,24.26-52.114,53.937-50.636l171.295,8.64l1500.682,75.593
					c4,0.201,7.787,0.92,11.505,2.121c15.918,5.199,27.617,19.078,32.058,36.237
					C2734.743,705.552,2734.282,709.112,2734.282,712.792z"/>
				<g>
					<g>
						<g>
							<polygon style="fill:#97A6B7;" points="1182.584,2543.522 1143.406,2544.695 1143.4,2246.445 1182.561,2245.781 							"/>
						</g>
						<g>
							<polygon style="fill:#97A6B7;" points="1257.952,2541.266 1219.03,2542.431 1219.003,2338.106 1257.912,2337.288 							"/>
						</g>
						<g>
							<polygon style="fill:#97A6B7;" points="1332.827,2539.024 1294.16,2540.182 1294.095,2282.89 1332.746,2282.168 							"/>
						</g>
						<g>
							<polygon style="fill:#97A6B7;" points="1407.213,2536.797 1368.798,2537.947 1368.723,2333.742 1407.126,2332.937 							"/>
						</g>
						<g>
							<polygon style="fill:#97A6B7;" points="1481.116,2534.584 1442.95,2535.727 1442.879,2387.906 1481.036,2387.012 							"/>
						</g>
						<g>
							<polygon style="fill:#97A6B7;" points="1554.54,2532.386 1516.621,2533.521 1516.446,2240.113 1554.348,2239.47 							"/>
						</g>
						<g>
							<polygon style="fill:#97A6B7;" points="1627.489,2530.201 1589.816,2531.33 1589.753,2443.444 1627.422,2442.463 							"/>
						</g>
						<g>
							<polygon style="fill:#97A6B7;" points="1699.969,2528.031 1662.538,2529.152 1662.345,2295.2 1699.764,2294.469 							"/>
						</g>
					</g>
					<g>
						<polygon style="fill:#97A6B7;" points="2611.21,2121.717 1143.399,2139.827 1143.397,2062.25 2611.043,2049.092 						"/>
					</g>
					<g>
						<polygon style="fill:#97A6B7;" points="2612.539,2700.144 1143.409,2757.738 1143.408,2680.012 2612.372,2627.388 						"/>
					</g>
					<g>
						<polygon style="fill:#97A6B7;" points="1852.981,943.329 1143.378,914.275 1143.376,830.274 1852.89,861.915 						"/>
					</g>
					<g>
						<polygon style="fill:#97A6B7;" points="2611.566,2276.494 1837.59,2291.607 1837.529,2235.969 2611.442,2222.787 						"/>
					</g>
					<g>
						<polygon style="fill:#97A6B7;" points="2611.827,2390.256 1837.719,2409.461 1837.662,2357.077 2611.711,2339.69 						"/>
					</g>
					<g>
						<polygon style="fill:#97A6B7;" points="2612.096,2507.219 1837.852,2530.634 1837.791,2474.955 2611.972,2453.474 						"/>
					</g>
					<g>
						<polygon style="fill:#97A6B7;" points="2612.429,1901.57 1133.547,1904.699 1133.547,1074.845 1155.049,1075.592 
							1154.779,1883.243 2612.234,1881.532 						"/>
					</g>
					<g>
						<path style="fill:#97A6B7;" d="M1224.326,1832.858c-2.688-0.003-5.379-0.952-7.462-2.857
							c-4.246-3.884-4.344-10.265-0.222-14.251l350.291-338.583c3.575-3.455,9.3-3.849,13.478-0.93l178.513,124.829l322.606-286.669
							c3.449-3.067,8.701-3.265,12.539-0.478l173.657,126.043l256.186-268.521c3.555-3.731,9.575-3.775,13.439-0.097
							c3.861,3.675,4.109,9.678,0.554,13.409l-261.682,274.635c-3.333,3.496-8.84,3.947-12.841,1.047l-174.238-126.283
							l-322.374,286.863c-3.551,3.158-8.949,3.439-12.903,0.677l-178.248-124.456l-343.614,332.578
							C1229.906,1831.842,1227.119,1832.861,1224.326,1832.858z"/>
					</g>
					<g>
						<g>
							<path style="fill:#97A6B7;" d="M1572.091,1446.502c-22.955,0.844-40.568,18.438-39.298,39.295
								c1.271,20.855,20.937,37.014,43.885,36.093c22.9-0.919,40.408-18.506,39.144-39.286
								C1614.559,1461.824,1594.998,1445.659,1572.091,1446.502z"/>
						</g>
						<g>
							<path style="fill:#97A6B7;" d="M1220.809,1785.844c-23.689,1.209-41.875,19.366-40.577,40.551
								c1.3,21.184,21.585,37.31,45.267,36.022c23.631-1.286,41.708-19.434,40.415-40.539
								C1264.623,1800.772,1244.447,1784.637,1220.809,1785.844z"/>
						</g>
						<g>
							<path style="fill:#97A6B7;" d="M1757.531,1576.365c-22.583,0.969-39.906,18.526-38.651,39.211
								c1.256,20.686,20.609,36.606,43.185,35.561c22.531-1.042,39.75-18.592,38.5-39.201
								C1799.317,1591.325,1780.068,1575.399,1757.531,1576.365z"/>
						</g>
						<g>
							<path style="fill:#97A6B7;" d="M2266.851,1409.994c-21.56,0.782-38.083,17.804-36.867,38.016
								c1.214,20.212,19.702,35.902,41.256,35.048c21.511-0.852,37.938-17.868,36.729-38.008
								C2306.759,1424.91,2288.368,1409.214,2266.851,1409.994z"/>
						</g>
						<g>
							<path style="fill:#97A6B7;" d="M2568.89,1177.112c-1.189-19.897-19.142-35.615-40.137-35.105
								c-21.036,0.51-37.151,17.113-35.956,37.081c1.193,19.966,19.241,35.679,40.27,35.098
								C2554.055,1213.605,2570.077,1197.007,2568.89,1177.112z"/>
						</g>
						<g>
							<path style="fill:#97A6B7;" d="M2086.083,1284.803c-21.912,0.664-38.713,17.724-37.484,38.103
								c1.23,20.378,20.017,36.298,41.924,35.561c21.863-0.736,38.565-17.79,37.341-38.095
								C2126.643,1300.067,2107.954,1284.141,2086.083,1284.803z"/>
						</g>
					</g>
				</g>
				<path style="fill:#97A6B7;" d="M2734.282,702.113v81.032L964.306,689.313v-59.155c0-29.437,24.26-52.114,53.937-50.636
					l46.068-0.039l125.283,6.519l1500.574,77.753c4,0.201,7.299,0.92,11.017,2.121
					C2717.385,671.036,2730.757,684.913,2734.282,702.113z"/>
				<g>
					
						<ellipse transform="matrix(0.7071 -0.7071 0.7071 0.7071 225.937 1974.7197)" style="fill:#97A6B7;" cx="2496.666" cy="714.63" rx="25.331" ry="25.331"/>
					
						<ellipse transform="matrix(0.7071 -0.7071 0.7071 0.7071 246.5382 2032.4546)" style="fill:#97A6B7;" cx="2576.659" cy="718.629" rx="25.331" ry="25.331"/>
					
						<ellipse transform="matrix(0.7071 -0.7071 0.7071 0.7071 265.9679 2087.3613)" style="fill:#97A6B7;" cx="2652.652" cy="722.629" rx="25.331" ry="25.331"/>
				</g>
			</g>
			<linearGradient id="SVGID_1_" gradientUnits="userSpaceOnUse" x1="964.3059" y1="638.8572" x2="1189.4896" y2="638.8572">
				<stop  offset="0" style="stop-color:#311944"/>
				<stop  offset="1" style="stop-color:#893976"/>
			</linearGradient>
			<path style="opacity:0.4;fill:url(#SVGID_1_);" d="M1189.49,586.002l-0.16,2.16l-9.958,110.098l-167.905-9.653l-47.161,7.62
				v-66.07c0-29.437,24.26-52.114,53.937-50.636l46.068-0.039L1189.49,586.002z"/>
			<g>
				<path style="fill:#FFFFFF;" d="M2783.581,783.14v2112.9c0,27.396-20.137,50.596-45.946,51.796l-357.367,16.712l-1316.092,61.561
					c-29.651,1.339-55.247-21.401-55.247-50.843V688.612l28.143-44.602c0-29.441,9.857-14.209,39.508-12.729l364.971,14.527
					l1292.757,51.477c21.401,1.093,9.634,16.677,9.634,21.332L2783.581,783.14z"/>
				<g>
					<g>
						<g>
							<polygon style="fill:#D8DEE8;" points="1232.773,2543.526 1194.289,2544.69 1194.289,2246.438 1232.048,2245.769 
								1232.048,2382.854 							"/>
						</g>
						<g>
							<polygon style="fill:#D8DEE8;" points="1305.957,2541.129 1305.921,2541.129 1266.374,2542.433 1266.374,2475.161 
								1266.667,2338.111 1305.757,2337.229 							"/>
						</g>
						<g>
							<polygon style="fill:#D8DEE8;" points="1380.811,2541.129 1380.775,2541.129 1342.168,2541.235 1342.132,2420.474 
								1342.097,2283.16 1380.74,2283.345 							"/>
						</g>
						<g>
							<polygon style="fill:#D8DEE8;" points="1455.207,2537.697 1455.171,2537.697 1416.81,2538.408 1416.774,2471.049 
								1416.705,2333.852 1455.136,2333.436 							"/>
						</g>
						<g>
							<polygon style="fill:#D8DEE8;" points="1529.109,2534.264 1529.038,2534.264 1492.925,2535.734 1492.925,2506.083 
								1491.871,2387.896 1529.53,2386.861 							"/>
						</g>
						<g>
							<polygon style="fill:#D8DEE8;" points="1602.552,2534.264 1602.446,2534.264 1564.613,2534.452 1564.508,2377.647 
								1564.438,2240.362 1602.34,2240.514 							"/>
						</g>
						<g>
							<polygon style="fill:#D8DEE8;" points="1675.502,2530.832 1675.466,2530.832 1637.811,2531.643 1637.775,2490.233 
								1637.738,2443.507 1675.431,2442.832 							"/>
						</g>
						<g>
							<polygon style="fill:#D8DEE8;" points="1747.957,2527.399 1747.816,2527.399 1710.549,2528.817 1710.478,2432.124 
								1710.337,2295.12 1747.746,2294.096 							"/>
						</g>
					</g>
					<g>
						<g>
							<polygon style="fill:#AABBCC;" points="1232.019,2543.526 1194.289,2544.69 1194.289,2383.523 1232.705,2382.854 							"/>
						</g>
						<g>
							<polygon style="fill:#AABBCC;" points="1304.132,2474.349 1304.132,2541.271 1266.374,2542.433 1266.374,2475.161 							"/>
						</g>
						<g>
							<polygon style="fill:#AABBCC;" points="1380.775,2539.013 1342.168,2540.177 1342.132,2419.946 1380.74,2419.24 							"/>
						</g>
						<g>
							<polygon style="fill:#AABBCC;" points="1455.171,2536.792 1416.81,2537.956 1416.774,2470.823 1455.136,2470.012 							"/>
						</g>
						<g>
							<polygon style="fill:#AABBCC;" points="1527.251,2505.165 1527.251,2534.572 1492.925,2535.734 1492.925,2506.083 							"/>
						</g>
						<g>
							<polygon style="fill:#AABBCC;" points="1602.446,2532.385 1564.613,2533.513 1564.508,2377.177 1602.34,2376.542 							"/>
						</g>
						<g>
							<polygon style="fill:#AABBCC;" points="1675.466,2530.199 1637.811,2531.326 1637.775,2490.075 1675.431,2489.087 							"/>
						</g>
						<g>
							<polygon style="fill:#AABBCC;" points="1747.816,2528.049 1710.549,2529.142 1710.478,2432.286 1747.746,2431.546 							"/>
						</g>
					</g>
					<g>
						<polygon style="fill:#D8DEE8;" points="2659.206,2121.717 1191.394,2139.827 1191.393,2062.25 2659.039,2049.092 						"/>
					</g>
					<g>
						<polygon style="fill:#D8DEE8;" points="2660.535,2700.144 1191.405,2757.738 1191.404,2680.012 2660.368,2627.388 						"/>
					</g>
					<g>
						<polygon style="fill:#D8DEE8;" points="1900.977,943.329 1191.373,914.275 1191.372,830.274 1900.885,861.915 						"/>
					</g>
					<g>
						<polygon style="fill:#D8DEE8;" points="2659.562,2276.494 1885.586,2291.607 1885.525,2235.969 2659.438,2222.787 						"/>
					</g>
					<g>
						<polygon style="fill:#D8DEE8;" points="2659.823,2390.256 1885.715,2409.461 1885.658,2357.077 2659.707,2339.69 						"/>
					</g>
					<g>
						<polygon style="fill:#D8DEE8;" points="2660.092,2507.219 1885.848,2530.634 1885.787,2474.955 2659.968,2453.474 						"/>
					</g>
					<g>
						<polygon style="fill:#D8DEE8;" points="2661.108,1901.57 1182.909,1904.699 1182.909,1074.845 1203.728,1075.592 
							1203.116,1883.243 2660.742,1881.532 						"/>
					</g>
					<g>
						<path style="fill:#D8DEE8;" d="M1272.321,1832.858c-2.688-0.003-5.379-0.952-7.462-2.857
							c-4.246-3.884-4.344-10.265-0.222-14.251l350.291-338.583c3.575-3.455,9.3-3.849,13.478-0.93l178.513,124.829l322.606-286.669
							c3.449-3.067,8.701-3.265,12.539-0.478l173.658,126.043l256.185-268.521c3.555-3.731,9.575-3.775,13.439-0.097
							c3.861,3.675,4.109,9.678,0.554,13.409l-261.682,274.635c-3.333,3.496-8.84,3.947-12.841,1.047l-174.239-126.283
							l-322.374,286.863c-3.551,3.158-8.949,3.439-12.903,0.677l-178.248-124.456L1280,1829.812
							C1277.902,1831.842,1275.115,1832.861,1272.321,1832.858z"/>
					</g>
					<g>
						<g>
							<path style="fill:#AABBCC;" d="M1620.087,1446.502c-22.955,0.844-40.568,18.438-39.298,39.295
								c1.271,20.855,20.937,37.014,43.885,36.093c22.9-0.919,40.408-18.506,39.144-39.286
								C1662.555,1461.824,1642.993,1445.659,1620.087,1446.502z"/>
						</g>
						<g>
							<path style="fill:#AABBCC;" d="M1268.805,1785.844c-23.689,1.209-41.875,19.366-40.577,40.551
								c1.3,21.184,21.585,37.31,45.267,36.022c23.631-1.286,41.708-19.434,40.415-40.539
								C1312.619,1800.772,1292.443,1784.637,1268.805,1785.844z"/>
						</g>
						<g>
							<path style="fill:#AABBCC;" d="M1805.526,1576.365c-22.583,0.969-39.906,18.526-38.651,39.211
								c1.256,20.686,20.609,36.606,43.185,35.561c22.531-1.042,39.75-18.592,38.5-39.201
								C1847.313,1591.325,1828.064,1575.399,1805.526,1576.365z"/>
						</g>
						<g>
							<path style="fill:#AABBCC;" d="M2314.846,1409.994c-21.56,0.782-38.083,17.804-36.867,38.016
								c1.214,20.212,19.702,35.902,41.256,35.048c21.511-0.852,37.938-17.868,36.73-38.008
								C2354.755,1424.91,2336.364,1409.214,2314.846,1409.994z"/>
						</g>
						<g>
							<path style="fill:#AABBCC;" d="M2616.885,1177.112c-1.189-19.897-19.142-35.615-40.137-35.105
								c-21.036,0.51-37.151,17.113-35.956,37.081c1.193,19.966,19.24,35.679,40.269,35.098
								C2602.051,1213.605,2618.073,1197.007,2616.885,1177.112z"/>
						</g>
						<g>
							<path style="fill:#AABBCC;" d="M2134.079,1284.803c-21.912,0.664-38.714,17.724-37.484,38.103
								c1.23,20.378,20.017,36.298,41.924,35.561c21.862-0.736,38.564-17.79,37.341-38.095
								C2174.639,1300.067,2155.949,1284.141,2134.079,1284.803z"/>
						</g>
					</g>
				</g>
				<path style="opacity:0.2;fill:#D8DEE8;" d="M2380.283,2964.548l-1316.099,61.561c-29.651,1.339-55.255-21.401-55.255-50.843
					V688.612l28.143-44.602c0-29.441,9.857-14.209,39.508-12.729l364.971,14.527c106.304,112.052,171.184,294.02,112.903,589.31
					c-160.708,814.33,424.655,444.575,658.208,766.943C2411.661,2276.796,1939.199,2708.466,2380.283,2964.548z"/>
				
					<linearGradient id="SVGID_00000092432243505465630280000012006563997328975548_" gradientUnits="userSpaceOnUse" x1="1010.142" y1="681.2994" x2="2783.6443" y2="681.2994">
					<stop  offset="0" style="stop-color:#FF9085"/>
					<stop  offset="1" style="stop-color:#FB6FBB"/>
				</linearGradient>
				<path style="fill:url(#SVGID_00000092432243505465630280000012006563997328975548_);" d="M2783.644,702.113v81.032
					l-1773.502-93.831v-59.155c0-29.437,25.34-52.114,55.017-50.636l1672.79,84.233
					C2759.347,664.835,2776.593,680.994,2783.644,702.113z"/>
				<g>
					
						<ellipse transform="matrix(0.2298 -0.9732 0.9732 0.2298 1264.5066 3027.0315)" style="fill:#FFFFFF;" cx="2544.662" cy="714.63" rx="25.331" ry="25.331"/>
					
						<ellipse transform="matrix(0.7071 -0.7071 0.7071 0.7071 260.5958 2066.3926)" style="fill:#FFFFFF;" cx="2624.655" cy="718.629" rx="25.331" ry="25.331"/>
					
						<ellipse transform="matrix(0.7071 -0.7071 0.7071 0.7071 280.0255 2121.2993)" style="fill:#FFFFFF;" cx="2700.648" cy="722.629" rx="25.331" ry="25.331"/>
				</g>
			</g>
		</g>
		<g>
			
				<linearGradient id="SVGID_00000181082543000748045220000016943322329650805136_" gradientUnits="userSpaceOnUse" x1="2722.9592" y1="1654.5898" x2="2371.2698" y2="1767.4575">
				<stop  offset="0" style="stop-color:#FCB148"/>
				<stop  offset="0.0521" style="stop-color:#FDBA46"/>
				<stop  offset="0.1424" style="stop-color:#FFC244"/>
				<stop  offset="0.3183" style="stop-color:#FFC444"/>
				<stop  offset="0.4849" style="stop-color:#FDB946"/>
				<stop  offset="0.7754" style="stop-color:#F99C4D"/>
				<stop  offset="0.8658" style="stop-color:#F8924F"/>
				<stop  offset="1" style="stop-color:#F8924F"/>
			</linearGradient>
			<path style="fill:url(#SVGID_00000181082543000748045220000016943322329650805136_);" d="M3127.828,1641.829
				c0,163.153-127.576,291.497-290.632,286.49c-169.693-5.211-312.411-151.766-312.411-327.146
				c0-175.379,142.718-302.691,312.411-285.021C3000.252,1333.13,3127.828,1478.676,3127.828,1641.829z"/>
			
				<linearGradient id="SVGID_00000122709523530115254680000013332820260533330324_" gradientUnits="userSpaceOnUse" x1="3007.4553" y1="1304.5184" x2="2693.4888" y2="1997.1874">
				<stop  offset="0" style="stop-color:#FFDB44"/>
				<stop  offset="1" style="stop-color:#FEEF06"/>
			</linearGradient>
			<path style="fill:url(#SVGID_00000122709523530115254680000013332820260533330324_);" d="M3171.889,1627.761
				c0,163.153-127.576,291.497-290.632,286.49c-169.693-5.211-312.411-151.766-312.411-327.145
				c0-175.379,142.718-302.691,312.411-285.022C3044.313,1319.062,3171.889,1464.608,3171.889,1627.761z"/>
			
				<linearGradient id="SVGID_00000109708104749792418980000000181986171497844636_" gradientUnits="userSpaceOnUse" x1="2949.7012" y1="2035.9011" x2="2889.1206" y2="1704.9518">
				<stop  offset="0" style="stop-color:#FCB148"/>
				<stop  offset="0.0521" style="stop-color:#FDBA46"/>
				<stop  offset="0.1424" style="stop-color:#FFC244"/>
				<stop  offset="0.3183" style="stop-color:#FFC444"/>
				<stop  offset="0.4849" style="stop-color:#FDB946"/>
				<stop  offset="0.7754" style="stop-color:#F99C4D"/>
				<stop  offset="0.8658" style="stop-color:#F8924F"/>
				<stop  offset="1" style="stop-color:#F8924F"/>
			</linearGradient>
			<path style="fill:url(#SVGID_00000109708104749792418980000000181986171497844636_);" d="M3159.091,1626.898
				c0,155.969-122.067,278.453-277.834,273.41c-161.813-5.24-297.672-145.104-297.672-312.209
				c0-167.105,135.859-288.651,297.672-272.072C3037.024,1331.986,3159.091,1470.929,3159.091,1626.898z"/>
			
				<linearGradient id="SVGID_00000147222133210023624930000017800815986198831039_" gradientUnits="userSpaceOnUse" x1="2821.2588" y1="1500.2231" x2="3070.9192" y2="2030.2045">
				<stop  offset="0" style="stop-color:#FCB148"/>
				<stop  offset="0.0521" style="stop-color:#FDBA46"/>
				<stop  offset="0.1424" style="stop-color:#FFC244"/>
				<stop  offset="0.3183" style="stop-color:#FFC444"/>
				<stop  offset="0.4849" style="stop-color:#FDB946"/>
				<stop  offset="0.7754" style="stop-color:#F99C4D"/>
				<stop  offset="0.8658" style="stop-color:#F8924F"/>
				<stop  offset="1" style="stop-color:#F8924F"/>
			</linearGradient>
			<path style="fill:url(#SVGID_00000147222133210023624930000017800815986198831039_);" d="M3149.925,1626.28
				c0,150.823-118.115,269.123-268.667,264.068c-156.194-5.244-287.174-140.33-287.174-301.542s130.981-278.637,287.174-262.821
				C3031.81,1341.231,3149.925,1475.458,3149.925,1626.28z"/>
			<g>
				
					<linearGradient id="SVGID_00000032632252186155422070000004036427924640643972_" gradientUnits="userSpaceOnUse" x1="2811.3123" y1="1386.1781" x2="2936.8499" y2="1856.6716">
					<stop  offset="0" style="stop-color:#FFDB44"/>
					<stop  offset="1" style="stop-color:#FEEF06"/>
				</linearGradient>
				<path style="fill:url(#SVGID_00000032632252186155422070000004036427924640643972_);" d="M2879.716,1377.297L2879.716,1377.297
					c8.012,0.762,14.496,7.974,14.496,16.11v27.769c16.019,1.789,32.062,4.574,48.127,8.349c11.845,2.784,23.611,6.098,35.297,9.94
					c7.003,2.302,11.774,9.372,11.06,16.664l-3.41,34.821c-0.905,9.239-10.037,14.664-18.635,10.83
					c-7.698-3.433-15.591-6.374-23.68-8.821c-14.115-4.271-29-7.055-44.664-8.347l-4.096-0.337v79.526
					c41.793,11.693,72.486,27.423,92.321,47.208c19.74,19.69,29.575,44.231,29.575,73.691c0,31.859-10.874,57.37-32.707,76.61
					c-21.95,19.342-52.724,30.221-92.521,32.576v30.649c0,8.14-6.489,14.48-14.508,14.161l-0.257-0.01
					c-8.035-0.32-14.559-7.2-14.559-15.369v-30.234l-6.458-0.292c-18.656-0.842-36.526-2.745-53.6-5.714
					c-12.644-2.2-24.992-5.038-37.04-8.519c-7.286-2.105-12.288-9.046-11.62-16.503l4.013-44.762
					c0.867-9.677,10.587-15.307,19.789-11.678c10.725,4.231,21.584,7.794,32.576,10.693c17.129,4.517,34.49,7.415,52.082,8.701
					l0.258-88.463c-40.117-9.927-70.152-24.63-89.885-44.104c-19.825-19.567-29.773-44.607-29.773-75.053
					c0-31.508,10.786-55.828,32.278-72.897c21.382-16.983,51.778-25.431,90.992-25.41v-28.389
					C2865.169,1382.532,2871.688,1376.533,2879.716,1377.297z M2865.169,1483.452c-12.398,0.902-22.067,4.307-28.987,10.219
					c-6.931,5.923-10.401,13.882-10.401,23.872c0,9.464,3.21,17.374,9.622,23.724c6.402,6.34,16.333,11.402,29.766,15.185V1483.452z
					 M2890.881,1643.639v81.123c13.478,0.026,23.813-3.191,31.028-9.645c7.202-6.443,10.799-15.542,10.799-27.308
					c0-10.728-3.343-19.625-10.036-26.699C2915.968,1654.024,2905.381,1648.202,2890.881,1643.639z"/>
			</g>
			
				<linearGradient id="SVGID_00000042012254209278424900000001840940551238900923_" gradientUnits="userSpaceOnUse" x1="2747.8096" y1="1534.5209" x2="2996.9661" y2="2063.4329">
				<stop  offset="0" style="stop-color:#FCB148"/>
				<stop  offset="0.0521" style="stop-color:#FDBA46"/>
				<stop  offset="0.1424" style="stop-color:#FFC244"/>
				<stop  offset="0.3183" style="stop-color:#FFC444"/>
				<stop  offset="0.4849" style="stop-color:#FDB946"/>
				<stop  offset="0.7754" style="stop-color:#F99C4D"/>
				<stop  offset="0.8658" style="stop-color:#F8924F"/>
				<stop  offset="1" style="stop-color:#F8924F"/>
			</linearGradient>
			<path style="opacity:0.3;fill:url(#SVGID_00000042012254209278424900000001840940551238900923_);" d="M2832.639,1663.214
				c9.077-89.653,91.472-127.607,80.72-210.074c-6.627-50.828-45.152-93.663-88.127-127.109
				c-130.351,13.671-231.148,121.605-231.148,262.776c0,161.212,130.981,296.297,287.174,301.542
				c15.165,0.509,29.976-0.279,44.378-2.167C2863.605,1826.456,2824.84,1740.238,2832.639,1663.214z"/>
		</g>
		<g>
			
				<linearGradient id="SVGID_00000182492710621670490020000003510931575556818062_" gradientUnits="userSpaceOnUse" x1="2223.4741" y1="1147.0479" x2="1986.2882" y2="1223.168">
				<stop  offset="0" style="stop-color:#FCB148"/>
				<stop  offset="0.0521" style="stop-color:#FDBA46"/>
				<stop  offset="0.1424" style="stop-color:#FFC244"/>
				<stop  offset="0.3183" style="stop-color:#FFC444"/>
				<stop  offset="0.4849" style="stop-color:#FDB946"/>
				<stop  offset="0.7754" style="stop-color:#F99C4D"/>
				<stop  offset="0.8658" style="stop-color:#F8924F"/>
				<stop  offset="1" style="stop-color:#F8924F"/>
			</linearGradient>
			<path style="fill:url(#SVGID_00000182492710621670490020000003510931575556818062_);" d="M2496.526,1138.442
				c0,110.033-86.04,196.591-196.008,193.215c-114.444-3.515-210.696-102.354-210.696-220.633
				c0-118.279,96.251-204.141,210.696-192.224C2410.486,930.249,2496.526,1028.408,2496.526,1138.442z"/>
			
				<linearGradient id="SVGID_00000165214326220700833920000009055929233833452167_" gradientUnits="userSpaceOnUse" x1="2415.3438" y1="910.9529" x2="2203.5986" y2="1378.1022">
				<stop  offset="0" style="stop-color:#FFDB44"/>
				<stop  offset="1" style="stop-color:#FEEF06"/>
			</linearGradient>
			<path style="fill:url(#SVGID_00000165214326220700833920000009055929233833452167_);" d="M2526.241,1128.954
				c0,110.034-86.04,196.591-196.008,193.214c-114.444-3.515-210.696-102.354-210.696-220.633
				c0-118.279,96.252-204.141,210.696-192.224C2440.202,920.762,2526.241,1018.92,2526.241,1128.954z"/>
			
				<linearGradient id="SVGID_00000111905338050884080610000000948367994922207674_" gradientUnits="userSpaceOnUse" x1="2376.3933" y1="1404.2114" x2="2335.5366" y2="1181.0129">
				<stop  offset="0" style="stop-color:#FCB148"/>
				<stop  offset="0.0521" style="stop-color:#FDBA46"/>
				<stop  offset="0.1424" style="stop-color:#FFC244"/>
				<stop  offset="0.3183" style="stop-color:#FFC444"/>
				<stop  offset="0.4849" style="stop-color:#FDB946"/>
				<stop  offset="0.7754" style="stop-color:#F99C4D"/>
				<stop  offset="0.8658" style="stop-color:#F8924F"/>
				<stop  offset="1" style="stop-color:#F8924F"/>
			</linearGradient>
			<path style="fill:url(#SVGID_00000111905338050884080610000000948367994922207674_);" d="M2517.61,1128.372
				c0,105.188-82.324,187.794-187.376,184.393c-109.13-3.534-200.755-97.861-200.755-210.56
				c0-112.699,91.626-194.671,200.755-183.49C2435.286,929.478,2517.61,1023.184,2517.61,1128.372z"/>
			
				<linearGradient id="SVGID_00000083055414114034720480000004547087838337501860_" gradientUnits="userSpaceOnUse" x1="2289.7693" y1="1042.9399" x2="2458.145" y2="1400.3695">
				<stop  offset="0" style="stop-color:#FCB148"/>
				<stop  offset="0.0521" style="stop-color:#FDBA46"/>
				<stop  offset="0.1424" style="stop-color:#FFC244"/>
				<stop  offset="0.3183" style="stop-color:#FFC444"/>
				<stop  offset="0.4849" style="stop-color:#FDB946"/>
				<stop  offset="0.7754" style="stop-color:#F99C4D"/>
				<stop  offset="0.8658" style="stop-color:#F8924F"/>
				<stop  offset="1" style="stop-color:#F8924F"/>
			</linearGradient>
			<path style="fill:url(#SVGID_00000083055414114034720480000004547087838337501860_);" d="M2511.428,1127.955
				c0,101.718-79.659,181.502-181.195,178.093c-105.34-3.537-193.676-94.641-193.676-203.365s88.336-187.918,193.676-177.251
				C2431.769,935.713,2511.428,1026.238,2511.428,1127.955z"/>
			<g>
				
					<linearGradient id="SVGID_00000029728801898265693610000005937139034408393613_" gradientUnits="userSpaceOnUse" x1="2283.061" y1="966.0258" x2="2367.7261" y2="1283.3357">
					<stop  offset="0" style="stop-color:#FFDB44"/>
					<stop  offset="1" style="stop-color:#FEEF06"/>
				</linearGradient>
				<path style="fill:url(#SVGID_00000029728801898265693610000005937139034408393613_);" d="M2329.194,960.036L2329.194,960.036
					c5.404,0.514,9.777,5.378,9.777,10.865v18.728c10.804,1.206,21.623,3.085,32.458,5.631c7.989,1.878,15.924,4.112,23.805,6.704
					c4.723,1.553,7.941,6.321,7.459,11.239l-2.3,23.484c-0.61,6.231-6.769,9.889-12.568,7.304
					c-5.192-2.315-10.514-4.298-15.97-5.949c-9.52-2.88-19.558-4.758-30.123-5.629l-2.762-0.227v53.634
					c28.186,7.886,48.886,18.495,62.263,31.838c13.313,13.28,19.946,29.83,19.946,49.699c0,21.486-7.333,38.691-22.058,51.667
					c-14.804,13.045-35.558,20.382-62.398,21.97v20.67c0,5.49-4.376,9.766-9.784,9.551l-0.173-0.007
					c-5.419-0.215-9.819-4.856-9.819-10.365v-20.39l-4.356-0.197c-12.582-0.568-24.634-1.851-36.149-3.854
					c-8.528-1.483-16.855-3.398-24.98-5.745c-4.914-1.419-8.287-6.101-7.837-11.13l2.706-30.188
					c0.585-6.526,7.14-10.324,13.346-7.876c7.233,2.853,14.557,5.257,21.97,7.212c11.552,3.046,23.261,5,35.125,5.868l0.174-59.661
					c-27.056-6.695-47.312-16.611-60.62-29.745c-13.37-13.196-20.079-30.084-20.079-50.617c0-21.249,7.275-37.652,21.769-49.163
					c14.42-11.454,34.92-17.151,61.367-17.137v-19.146C2319.383,963.567,2323.78,959.521,2329.194,960.036z M2319.383,1031.629
					c-8.362,0.608-14.882,2.905-19.549,6.892c-4.675,3.994-7.015,9.363-7.015,16.1c0,6.382,2.165,11.718,6.489,16
					c4.318,4.276,11.015,7.69,20.075,10.241V1031.629z M2336.724,1139.662v54.711c9.09,0.018,16.06-2.152,20.926-6.505
					c4.857-4.345,7.283-10.482,7.283-18.417c0-7.235-2.254-13.235-6.768-18.007
					C2353.643,1146.667,2346.503,1142.74,2336.724,1139.662z"/>
			</g>
			
				<linearGradient id="SVGID_00000104677556596122792150000005754276837571905667_" gradientUnits="userSpaceOnUse" x1="2240.2336" y1="1066.071" x2="2408.2698" y2="1422.7794">
				<stop  offset="0" style="stop-color:#FCB148"/>
				<stop  offset="0.0521" style="stop-color:#FDBA46"/>
				<stop  offset="0.1424" style="stop-color:#FFC244"/>
				<stop  offset="0.3183" style="stop-color:#FFC444"/>
				<stop  offset="0.4849" style="stop-color:#FDB946"/>
				<stop  offset="0.7754" style="stop-color:#F99C4D"/>
				<stop  offset="0.8658" style="stop-color:#F8924F"/>
				<stop  offset="1" style="stop-color:#F8924F"/>
			</linearGradient>
			<path style="opacity:0.3;fill:url(#SVGID_00000104677556596122792150000005754276837571905667_);" d="M2297.444,1152.864
				c6.122-60.464,61.691-86.06,54.439-141.678c-4.47-34.279-30.451-63.168-59.435-85.724
				c-87.911,9.22-155.891,82.013-155.891,177.221c0,108.725,88.336,199.829,193.676,203.365c10.228,0.343,20.217-0.188,29.929-1.462
				C2318.328,1262.958,2292.185,1204.81,2297.444,1152.864z"/>
		</g>
		<g>
			
				<linearGradient id="SVGID_00000106843213535860390340000001785661153963955344_" gradientUnits="userSpaceOnUse" x1="2754.2527" y1="922.6053" x2="2440.5281" y2="1023.2891">
				<stop  offset="0" style="stop-color:#FCB148"/>
				<stop  offset="0.0521" style="stop-color:#FDBA46"/>
				<stop  offset="0.1424" style="stop-color:#FFC244"/>
				<stop  offset="0.3183" style="stop-color:#FFC444"/>
				<stop  offset="0.4849" style="stop-color:#FDB946"/>
				<stop  offset="0.7754" style="stop-color:#F99C4D"/>
				<stop  offset="0.8658" style="stop-color:#F8924F"/>
				<stop  offset="1" style="stop-color:#F8924F"/>
			</linearGradient>
			<path style="fill:url(#SVGID_00000106843213535860390340000001785661153963955344_);" d="M3115.417,911.222
				c0,145.541-113.804,260.03-259.259,255.564c-151.375-4.649-278.686-135.383-278.686-291.831
				c0-156.447,127.312-270.016,278.686-254.253C3001.613,635.847,3115.417,765.681,3115.417,911.222z"/>
			
				<linearGradient id="SVGID_00000025442784108670386230000015921148733078615699_" gradientUnits="userSpaceOnUse" x1="3008.0378" y1="610.3237" x2="2727.9636" y2="1228.2196">
				<stop  offset="0" style="stop-color:#FFDB44"/>
				<stop  offset="1" style="stop-color:#FEEF06"/>
			</linearGradient>
			<path style="fill:url(#SVGID_00000025442784108670386230000015921148733078615699_);" d="M3154.721,898.673
				c0,145.541-113.804,260.03-259.259,255.563c-151.375-4.648-278.687-135.383-278.687-291.83
				c0-156.447,127.312-270.016,278.687-254.254C3040.917,623.298,3154.721,753.132,3154.721,898.673z"/>
			
				<linearGradient id="SVGID_00000133519054162350107300000014437634529869637264_" gradientUnits="userSpaceOnUse" x1="2956.5181" y1="1262.7542" x2="2902.4771" y2="967.5306">
				<stop  offset="0" style="stop-color:#FCB148"/>
				<stop  offset="0.0521" style="stop-color:#FDBA46"/>
				<stop  offset="0.1424" style="stop-color:#FFC244"/>
				<stop  offset="0.3183" style="stop-color:#FFC444"/>
				<stop  offset="0.4849" style="stop-color:#FDB946"/>
				<stop  offset="0.7754" style="stop-color:#F99C4D"/>
				<stop  offset="0.8658" style="stop-color:#F8924F"/>
				<stop  offset="1" style="stop-color:#F8924F"/>
			</linearGradient>
			<path style="fill:url(#SVGID_00000133519054162350107300000014437634529869637264_);" d="M3143.305,897.903
				c0,139.132-108.89,248.395-247.842,243.896c-144.346-4.674-265.538-129.44-265.538-278.506s121.193-257.491,265.538-242.702
				C3034.415,634.826,3143.305,758.771,3143.305,897.903z"/>
			
				<linearGradient id="SVGID_00000081639891558723215580000000242002940625163942_" gradientUnits="userSpaceOnUse" x1="2841.9412" y1="784.9023" x2="3064.6509" y2="1257.6725">
				<stop  offset="0" style="stop-color:#FCB148"/>
				<stop  offset="0.0521" style="stop-color:#FDBA46"/>
				<stop  offset="0.1424" style="stop-color:#FFC244"/>
				<stop  offset="0.3183" style="stop-color:#FFC444"/>
				<stop  offset="0.4849" style="stop-color:#FDB946"/>
				<stop  offset="0.7754" style="stop-color:#F99C4D"/>
				<stop  offset="0.8658" style="stop-color:#F8924F"/>
				<stop  offset="1" style="stop-color:#F8924F"/>
			</linearGradient>
			<path style="fill:url(#SVGID_00000081639891558723215580000000242002940625163942_);" d="M3135.128,897.352
				c0,134.542-105.364,240.071-239.665,235.562c-139.333-4.678-256.174-125.181-256.174-268.99s116.841-248.558,256.174-234.449
				C3029.764,643.074,3135.128,762.81,3135.128,897.352z"/>
			<g>
				
					<linearGradient id="SVGID_00000010304817307872707760000007792357827633752251_" gradientUnits="userSpaceOnUse" x1="2833.0681" y1="683.1683" x2="2945.0542" y2="1102.8724">
					<stop  offset="0" style="stop-color:#FFDB44"/>
					<stop  offset="1" style="stop-color:#FEEF06"/>
				</linearGradient>
				<path style="fill:url(#SVGID_00000010304817307872707760000007792357827633752251_);" d="M2894.087,675.245L2894.087,675.245
					c7.147,0.68,12.931,7.113,12.931,14.371v24.771c14.29,1.596,28.601,4.08,42.932,7.448c10.567,2.483,21.062,5.44,31.487,8.867
					c6.247,2.054,10.503,8.36,9.866,14.865l-3.042,31.062c-0.807,8.241-8.954,13.081-16.623,9.661
					c-6.867-3.062-13.907-5.685-21.123-7.869c-12.592-3.81-25.87-6.294-39.843-7.446l-3.654-0.301v70.942
					c37.281,10.43,64.661,24.463,82.355,42.112c17.609,17.565,26.382,39.456,26.382,65.736c0,28.42-9.7,51.177-29.176,68.34
					c-19.581,17.254-47.033,26.959-82.533,29.06v27.341c0,7.261-5.789,12.917-12.942,12.633l-0.229-0.009
					c-7.167-0.285-12.988-6.423-12.988-13.709v-26.97l-5.761-0.26c-16.642-0.751-32.583-2.449-47.813-5.098
					c-11.279-1.962-22.294-4.495-33.042-7.599c-6.5-1.878-10.962-8.069-10.365-14.721l3.58-39.93
					c0.774-8.632,9.444-13.655,17.653-10.417c9.567,3.774,19.254,6.953,29.059,9.539c15.28,4.029,30.767,6.614,46.46,7.762
					l0.23-78.913c-35.786-8.855-62.579-21.971-80.181-39.343c-17.685-17.455-26.559-39.792-26.559-66.951
					c0-28.106,9.622-49.802,28.793-65.028c19.074-15.149,46.188-22.686,81.169-22.667v-25.325
					C2881.111,679.916,2886.926,674.564,2894.087,675.245z M2881.111,769.942c-11.06,0.805-19.685,3.842-25.857,9.116
					c-6.183,5.283-9.278,12.384-9.278,21.295c0,8.442,2.863,15.499,8.583,21.164c5.711,5.656,14.57,10.172,26.552,13.546V769.942z
					 M2904.047,912.837v72.366c12.023,0.024,21.242-2.847,27.678-8.604c6.425-5.747,9.633-13.864,9.633-24.36
					c0-9.57-2.981-17.506-8.952-23.817C2926.427,922.101,2916.982,916.907,2904.047,912.837z"/>
			</g>
			
				<linearGradient id="SVGID_00000056422625061691882830000000951225666075697066_" gradientUnits="userSpaceOnUse" x1="2776.4207" y1="815.4976" x2="2998.6809" y2="1287.314">
				<stop  offset="0" style="stop-color:#FCB148"/>
				<stop  offset="0.0521" style="stop-color:#FDBA46"/>
				<stop  offset="0.1424" style="stop-color:#FFC244"/>
				<stop  offset="0.3183" style="stop-color:#FFC444"/>
				<stop  offset="0.4849" style="stop-color:#FDB946"/>
				<stop  offset="0.7754" style="stop-color:#F99C4D"/>
				<stop  offset="0.8658" style="stop-color:#F8924F"/>
				<stop  offset="1" style="stop-color:#F8924F"/>
			</linearGradient>
			<path style="opacity:0.3;fill:url(#SVGID_00000056422625061691882830000000951225666075697066_);" d="M2852.093,930.299
				c8.097-79.975,81.598-113.832,72.006-187.397c-5.912-45.341-40.278-83.552-78.614-113.387
				c-116.28,12.195-206.196,108.478-206.196,234.409c0,143.81,116.842,264.312,256.174,268.99
				c13.528,0.454,26.741-0.249,39.588-1.933C2879.716,1075.918,2845.136,999.007,2852.093,930.299z"/>
		</g>
		<g>
			
				<linearGradient id="SVGID_00000118392073044279597030000003662794778758329275_" gradientUnits="userSpaceOnUse" x1="3504.5288" y1="2996.2" x2="3527.6389" y2="3290.3274" gradientTransform="matrix(-1 -0.0024 -0.0024 1 4767.8267 3.3687)">
				<stop  offset="0" style="stop-color:#311944"/>
				<stop  offset="1" style="stop-color:#A03976"/>
			</linearGradient>
			<path style="fill:url(#SVGID_00000118392073044279597030000003662794778758329275_);" d="M1210.684,3137.738
				c0,0,92.925,42.503,94.427,49.256c1.504,6.753-59.819-2.406-84.865-1.493c-25.045,0.914-45.628-6.538-43.337-17.14
				c2.295-10.602,11.124-37.26,11.124-37.26L1210.684,3137.738z"/>
			
				<linearGradient id="SVGID_00000170244241673650150460000003727805939622697641_" gradientUnits="userSpaceOnUse" x1="3564.189" y1="3159.9507" x2="3559.9875" y2="2855.3274" gradientTransform="matrix(-1 -0.0024 -0.0024 1 4767.8267 3.3687)">
				<stop  offset="0" style="stop-color:#FFC444"/>
				<stop  offset="0.9964" style="stop-color:#F36F56"/>
			</linearGradient>
			<path style="fill:url(#SVGID_00000170244241673650150460000003727805939622697641_);" d="M1214.17,3103.434l-5.759,41.87
				c0,0-14.74,5.207-24.618-1.015l-4.11-45.947L1214.17,3103.434z"/>
			
				<linearGradient id="SVGID_00000170253082799331125800000004622636308778614436_" gradientUnits="userSpaceOnUse" x1="3941.25" y1="2961.8918" x2="3964.3594" y2="3256.009" gradientTransform="matrix(-1 -0.0024 -0.0024 1 4767.8267 3.3687)">
				<stop  offset="0" style="stop-color:#311944"/>
				<stop  offset="1" style="stop-color:#A03976"/>
			</linearGradient>
			<path style="fill:url(#SVGID_00000170253082799331125800000004622636308778614436_);" d="M776.073,3103.386l-10.862,17.344
				c-3.038,4.851-3.954,10.697-2.517,16.237c3.75,14.454,11.24,42.623,14.517,49.971c4.462,10.01,64.649,16.094,64.649,16.094
				s5.386-7.54-7.091-16.696c-12.476-9.155-20.507-10.608-24.887-24.085c-4.377-13.474-7.229-51.567-7.229-51.567L776.073,3103.386z
				"/>
			
				<linearGradient id="SVGID_00000119092164655168872110000007610054367952092346_" gradientUnits="userSpaceOnUse" x1="3964.4243" y1="3154.4302" x2="3960.2227" y2="2849.7979" gradientTransform="matrix(-1 -0.0024 -0.0024 1 4767.8267 3.3687)">
				<stop  offset="0" style="stop-color:#FFC444"/>
				<stop  offset="0.9964" style="stop-color:#F36F56"/>
			</linearGradient>
			<path style="fill:url(#SVGID_00000119092164655168872110000007610054367952092346_);" d="M821.218,3059.35
				c-3.961,3.142-23.436,61.781-23.436,61.781s-6.278,7.988-18.139-3.851c-11.859-11.84-5.368-5.311-5.368-5.311l2.369-57.715
				L821.218,3059.35z"/>
			
				<linearGradient id="SVGID_00000054246213413016349580000003148226480452497062_" gradientUnits="userSpaceOnUse" x1="939.4976" y1="1803.4113" x2="1262.7893" y2="2817.7747">
				<stop  offset="0" style="stop-color:#311944"/>
				<stop  offset="1" style="stop-color:#A03976"/>
			</linearGradient>
			<path style="fill:url(#SVGID_00000054246213413016349580000003148226480452497062_);" d="M1267.375,2262.083
				c4.608,124.949,4.482,260.691-3.056,405.685c-8.486,163.274-25.114,314.161-45.941,450.925
				c-7.621,0.225-15.629,0.245-23.992-0.009c-5.648-0.17-11.12-0.459-16.409-0.836c-10.568-28.395-23.053-65.732-34.205-110.319
				c-11.724-46.885-18.765-88.931-23.756-129.135c-17.574-141.554,3.45-153.849-10.837-258.757
				c-12.652-92.911-30.954-96.582-52.133-228.503c-22.978-143.139-5.565-164.563,2.898-172.297
				C1095.965,2185.912,1180.338,2208.588,1267.375,2262.083z"/>
			
				<linearGradient id="SVGID_00000062179651791291325930000014871660959976617909_" gradientUnits="userSpaceOnUse" x1="3491.4868" y1="2666.4751" x2="3716.7178" y2="2666.4751" gradientTransform="matrix(-1 -0.0024 -0.0024 1 4767.8267 3.3687)">
				<stop  offset="0" style="stop-color:#444B8C"/>
				<stop  offset="0.9964" style="stop-color:#26264F"/>
			</linearGradient>
			<path style="opacity:0.25;fill:url(#SVGID_00000062179651791291325930000014871660959976617909_);" d="M1059.943,2218.838
				c34.356-31.406,112.709-12.154,195.398,36.101c-95.506,102.69-106.052,169.43-94.735,212.778
				c12.788,48.992,51.994,63.187,51.716,116.724c-0.342,65.79-59.762,83.075-58.666,152.698
				c0.724,46.037,26.817,45.622,32.842,102.496c7.129,67.294-27.014,90.394-16.093,140.197c4.698,21.426,18.188,49.44,56.73,78.357
				c-2.833,20.434-5.737,40.662-8.759,60.507c-7.618,0.222-15.626,0.246-23.99-0.011c-5.648-0.169-11.122-0.457-16.408-0.835
				c-10.57-28.395-23.055-65.73-34.207-110.318c-11.724-46.885-18.765-88.931-23.756-129.135
				c-17.573-141.553,3.45-153.849-10.837-258.757c-12.652-92.911-30.954-96.584-52.132-228.504
				C1034.069,2247.993,1051.481,2226.57,1059.943,2218.838z"/>
			
				<linearGradient id="SVGID_00000168105822367855835840000011625946905841004733_" gradientUnits="userSpaceOnUse" x1="555.624" y1="2362.7686" x2="956.0322" y2="2644.5374">
				<stop  offset="0" style="stop-color:#311944"/>
				<stop  offset="1" style="stop-color:#A03976"/>
			</linearGradient>
			<path style="fill:url(#SVGID_00000168105822367855835840000011625946905841004733_);" d="M1208.374,2259.843
				c-82.309,119.817-171.138,268.968-250.685,447.56c-60.114,134.963-103.783,261.71-135.892,374.688
				c-4.313,1.983-14.485,5.938-27.467,4.191c-17.707-2.385-28.296-13.717-31.063-16.879c-12.763-81.075-11.17-149.709-6.653-199.236
				c2.893-31.709,8.003-84.516,28.376-149.671c22.82-72.983,38.397-77.05,68.125-154.251
				c30.854-80.131,23.476-100.164,53.08-200.465c12.162-41.205,32.503-102.515,65.998-175.833
				C1050.922,2213.244,1129.649,2236.544,1208.374,2259.843z"/>
			
				<linearGradient id="SVGID_00000160161618664664829450000005055207625304358054_" gradientUnits="userSpaceOnUse" x1="790.0413" y1="1248.3068" x2="1562.3334" y2="3043.3682">
				<stop  offset="0" style="stop-color:#AA80F9"/>
				<stop  offset="0.9964" style="stop-color:#6165D7"/>
			</linearGradient>
			<path style="fill:url(#SVGID_00000160161618664664829450000005055207625304358054_);" d="M1542.734,2090.785
				c-0.779,29.155-48.697,54.835-87.279,62.711c-90.212,18.412-194.802-47.136-244.443-119.646
				c-9.748-14.238-20.578-31.5-23.189-30.164c-5.667,2.899,44.472,107.367,71.844,193.474c18.232,57.355,6.232,43.208,17.763,71.904
				c5.063,12.602,12.946,29.189,5.722,42.301c-1.227,2.228-4.763,7.753-13.932,11.864c-39.854,17.867-169.959,12.853-169.959,12.853
				c-121.563-4.686-190.986,57.688-222.052,21.652c-8.358-9.695-13.98-26.559-19.325-42.594
				c-10.003-30.006-11.263-54.06-11.722-60.352c-4.255-58.249-52.167-227.027-158.099-365.269
				c-21.108-27.546-35.787-42.037-36.704-67.638c-2.691-75.152,116.367-158.111,215.493-167.644
				c27.17-2.611,75.824-1.789,121.435,2.512c18.229,1.716,37.637,4.245,58.497,7.895c50.588,8.85,85.805,15.01,121.697,31.43
				c144.728,66.219,113.143,213.622,269.788,315.539C1492.128,2046.653,1543.55,2060.254,1542.734,2090.785z"/>
			
				<linearGradient id="SVGID_00000063627165634342201890000005729029398058537394_" gradientUnits="userSpaceOnUse" x1="969.8031" y1="1426.344" x2="940.1432" y2="1714.0444">
				<stop  offset="0" style="stop-color:#FFC444"/>
				<stop  offset="0.9964" style="stop-color:#F36F56"/>
			</linearGradient>
			<path style="fill:url(#SVGID_00000063627165634342201890000005729029398058537394_);" d="M949.742,1576.275
				c0,0-6.216,34.689-20.524,59.383c-12.932,22.317-66.396,30.317-77.535,34.202c-11.139,3.883,16.804,23.283,46.522,30.316
				c29.714,7.035,116.637,11.633,133.661,2.277c17.024-9.355-11.055-12.215-31.503-22.965
				c-20.449-10.75-27.287-54.449-20.956-73.026C985.739,1587.882,949.742,1576.275,949.742,1576.275z"/>
			<g>
				
					<linearGradient id="SVGID_00000176030083331427809910000013567022168552692641_" gradientUnits="userSpaceOnUse" x1="5151.1606" y1="1780.1956" x2="5067.3608" y2="1567.3596" gradientTransform="matrix(-0.9328 0.3604 0.3604 0.9328 5108.3735 -1788.1479)">
					<stop  offset="0" style="stop-color:#444B8C"/>
					<stop  offset="0.9964" style="stop-color:#3E4177"/>
				</linearGradient>
				<path style="fill:url(#SVGID_00000176030083331427809910000013567022168552692641_);" d="M986.372,1559.936
					c16.912-23.238,8.789-68.163-6.736-73.689c-4.438-1.579-7.382,0.804-50.772,37.548c-21.546,18.249-32.01,27.629-32.384,39.95
					c-0.23,7.522,3.181,16.445,8.272,22.677c2.621,3.206,6.867,6.87,15.83,13.578c7.955,5.952,7.505,5.81,9.903,7.512
					c5.759,4.087,16.428,10.645,33.939,16.535c-0.534-4.206-0.933-9.512-0.648-15.539c0.109-2.319,0.635-11.416,3.456-19.87
					C972.085,1574.088,980.884,1567.48,986.372,1559.936z"/>
				
					<linearGradient id="SVGID_00000082332689437806028890000018171361611349437864_" gradientUnits="userSpaceOnUse" x1="941.04" y1="1548.5565" x2="1041.3458" y2="1799.0309">
					<stop  offset="0" style="stop-color:#FFC444"/>
					<stop  offset="0.5634" style="stop-color:#F8944E"/>
					<stop  offset="0.9964" style="stop-color:#F36F56"/>
				</linearGradient>
				<path style="fill:url(#SVGID_00000082332689437806028890000018171361611349437864_);" d="M977.482,1553.71
					c-6.513-1.841-17.265,0.47-24.637,5.938c-4.357,3.23-5.23,5.888-12.449,11.025c-6.657,4.739-9.059,4.717-10.571,7.449
					c-1.894,3.413-1.738,9.951,8.88,23.769c-6.295-2.863-12.419-2.544-15.582,0.753c-0.504,0.526-1.714,2.262-1.989,4.297
					c-0.997,7.365,7.539,13.023,21.943,12.696c0,0,21.712,16.795,47.625,4.916C1013.902,1613.912,997.004,1559.228,977.482,1553.71z
					"/>
			</g>
			
				<linearGradient id="SVGID_00000001649123557643032400000002296497696314737853_" gradientUnits="userSpaceOnUse" x1="2444.4668" y1="2046.9949" x2="2809.2383" y2="2046.9949" gradientTransform="matrix(-1 0 0 1 3973.0259 0)">
				<stop  offset="0" style="stop-color:#AA80F9"/>
				<stop  offset="0.9964" style="stop-color:#6165D7"/>
			</linearGradient>
			<path style="opacity:0.2;fill:url(#SVGID_00000001649123557643032400000002296497696314737853_);" d="M1416.191,2086.303
				c-65.408-14.731-91.47-14.256-123.815-40.317c-53.852-43.39-61.94-109.43-93.235-108.623
				c-14.789,0.381-26.803,15.485-35.353,30.274c7.878,12.339,15.757,24.677,23.635,37.015c0.032-0.469,0.136-0.833,0.399-0.967
				c2.611-1.336,13.441,15.927,23.189,30.165c49.642,72.51,154.231,138.058,244.443,119.646
				c25.867-5.28,55.864-18.582,73.105-35.548C1484.036,2102.907,1446.008,2093.02,1416.191,2086.303z"/>
			
				<linearGradient id="SVGID_00000124148279466084323840000000511863834109777046_" gradientUnits="userSpaceOnUse" x1="430.9339" y1="1402.8052" x2="1203.2281" y2="3197.8716">
				<stop  offset="0" style="stop-color:#AA80F9"/>
				<stop  offset="0.9964" style="stop-color:#6165D7"/>
			</linearGradient>
			<path style="fill:url(#SVGID_00000124148279466084323840000000511863834109777046_);" d="M727.837,2337.763
				c-39.626,3.535-128.823,5.148-191.91-53.216c-105.026-97.159-52.924-282.103-16.366-361.64
				c41.914-91.194,108.625-142.239,149.167-173.26c50.298-38.486,80.998-61.976,117.932-56.716
				c95.522,13.603,161.677,209.379,109.239,265.431c-17.167,18.349-34.167,7.959-83.849,23.781
				c-16.179,5.153-136.934,43.614-157.958,132.552c-14.715,62.247,22.75,135.135,89.43,184.089
				C738.294,2311.776,733.065,2324.77,727.837,2337.763z"/>
			
				<linearGradient id="SVGID_00000163074577391494816990000010570527322125908645_" gradientUnits="userSpaceOnUse" x1="2676.3989" y1="2123.2534" x2="3424.7744" y2="2123.2534" gradientTransform="matrix(-1 0 0 1 3973.0259 0)">
				<stop  offset="0" style="stop-color:#AA80F9"/>
				<stop  offset="0.9964" style="stop-color:#6165D7"/>
			</linearGradient>
			<path style="opacity:0.2;fill:url(#SVGID_00000163074577391494816990000010570527322125908645_);" d="M896.583,2359.563
				c4.222,2.146,10.647,4.893,18.785,6.317c24.717,4.325,44.267-7.229,59.32-13.98c22.062-9.894,44.651-11.723,89.824-15.38
				c37.638-3.047,44.861,1.459,94.005,0.055c31.131-0.889,56.435-3.503,72.788-5.543c-24.882-6.615-44.274-16.014-59.311-25.517
				c-44.862-28.35-51.499-57.083-101.734-76.498c-65.26-25.223-96.62,6.817-128.975-19.051
				c-38.506-30.785-4.42-84.418-33.234-177.49c-4.891-15.797-42.038-135.785-127.272-151.072
				c-39.745-7.128-92.241,8.098-112.469,41.78c-15.832,26.358-1.083,46.009-20.332,75.109
				c-19.234,29.081-42.239,21.968-66.759,46.222c-38.933,38.514-44.901,119.727-9.751,165.655
				c16.395,21.422,37.7,29.893,77.789,45.834c24.487,9.736,47.249,15.792,66.852,19.637
				c-49.088-47.114-74.562-107.874-62.015-160.947c13.104-55.44,64.959-91.26,106.083-111.631
				c41.152,77.443,74.784,167.183,85.983,251.724c3.962,29.91,1.151,38.797,3.944,47.487c1.862,5.796,5.828,9.704,29.036,36.926
				C886.248,2347.538,892.238,2354.515,896.583,2359.563z"/>
			<g>
				
					<linearGradient id="SVGID_00000124119537696732420400000011313929028770992308_" gradientUnits="userSpaceOnUse" x1="2296.9424" y1="2217.6553" x2="3225.9443" y2="2217.6553" gradientTransform="matrix(-1 0 0 1 3973.0259 0)">
					<stop  offset="0" style="stop-color:#444B8C"/>
					<stop  offset="0.9964" style="stop-color:#26264F"/>
				</linearGradient>
				<path style="fill:url(#SVGID_00000124119537696732420400000011313929028770992308_);" d="M753.853,2368.906l-4.617-13.579
					c-7.36-21.651,4.741-44.741,27.013-51.526l873.226-266.002l26.608,90.186L807.269,2395.59
					C785.113,2402.414,761.19,2390.488,753.853,2368.906z"/>
				
					<linearGradient id="SVGID_00000089573318541777706850000009357870507021262232_" gradientUnits="userSpaceOnUse" x1="1440.1483" y1="1924.411" x2="2398.7065" y2="1924.411" gradientTransform="matrix(-1 0 0 1 3973.0259 0)">
					<stop  offset="0" style="stop-color:#444B8C"/>
					<stop  offset="0.9964" style="stop-color:#26264F"/>
				</linearGradient>
				<path style="fill:url(#SVGID_00000089573318541777706850000009357870507021262232_);" d="M2192.231,2399.196
					c-250.166,81.081-518.258-60.691-596.434-323.488c-80.056-269.117,70.795-554.605,334.284-630.47
					c258.74-74.498,520.367,84.46,587.132,348.225C2582.459,2051.228,2438.074,2319.515,2192.231,2399.196z M2172.042,2325.727
					c207.586-66.697,329.266-293.11,273.544-510.324c-56.811-221.463-276.975-353.789-493.68-290.746
					c-220.028,64.009-346.269,302.551-280.105,527.77C1736.66,2273.208,1961.384,2393.411,2172.042,2325.727z"/>
				<path style="opacity:0.3;fill:#D8DEE8;" d="M1649.475,2037.8l-111.34,33.916c-7.64,35.51-22.493,55.855-37.442,68.247
					c-56.239,46.62-131.336-4.225-236.105,50.44c-52.574,27.432-42.584,44.888-91.863,64.029
					c-81.47,31.644-118.763-12.189-190.864,16.613c-72.929,29.133-80.118,92.091-121.479,89.831
					c-17.693-0.966-40.471-13.838-65.869-62.639l-18.264,5.564c-22.272,6.784-34.373,29.873-27.013,51.527l4.617,13.578
					c7.338,21.581,31.259,33.508,53.416,26.683l868.815-267.604L1649.475,2037.8z"/>
				<g>
					
						<linearGradient id="SVGID_00000047049958413838314150000002597133883580806077_" gradientUnits="userSpaceOnUse" x1="2115.571" y1="1914.4354" x2="1905.8813" y2="1981.7311">
						<stop  offset="0" style="stop-color:#FCB148"/>
						<stop  offset="0.0521" style="stop-color:#FDBA46"/>
						<stop  offset="0.1424" style="stop-color:#FFC244"/>
						<stop  offset="0.3183" style="stop-color:#FFC444"/>
						<stop  offset="0.4849" style="stop-color:#FDB946"/>
						<stop  offset="0.7754" style="stop-color:#F99C4D"/>
						<stop  offset="0.8658" style="stop-color:#F8924F"/>
						<stop  offset="1" style="stop-color:#F8924F"/>
					</linearGradient>
					<path style="fill:url(#SVGID_00000047049958413838314150000002597133883580806077_);" d="M2356.969,1906.827
						c0,97.278-76.065,173.801-173.285,170.816c-101.177-3.107-186.27-90.488-186.27-195.056
						c0-104.567,85.093-180.475,186.27-169.94C2280.903,1722.77,2356.969,1809.549,2356.969,1906.827z"/>
					
						<linearGradient id="SVGID_00000165221038249884591050000013809520266145144984_" gradientUnits="userSpaceOnUse" x1="2285.1978" y1="1705.7103" x2="2097.9998" y2="2118.7041">
						<stop  offset="0" style="stop-color:#FFDB44"/>
						<stop  offset="1" style="stop-color:#FEEF06"/>
					</linearGradient>
					<path style="fill:url(#SVGID_00000165221038249884591050000013809520266145144984_);" d="M2383.239,1898.439
						c0,97.278-76.065,173.801-173.285,170.815c-101.177-3.107-186.271-90.488-186.271-195.056
						c0-104.567,85.094-180.475,186.271-169.94C2307.174,1714.382,2383.239,1801.161,2383.239,1898.439z"/>
					
						<linearGradient id="SVGID_00000183953743779878885650000002173326611869977740_" gradientUnits="userSpaceOnUse" x1="2250.7627" y1="2141.7866" x2="2214.6423" y2="1944.4629">
						<stop  offset="0" style="stop-color:#FCB148"/>
						<stop  offset="0.0521" style="stop-color:#FDBA46"/>
						<stop  offset="0.1424" style="stop-color:#FFC244"/>
						<stop  offset="0.3183" style="stop-color:#FFC444"/>
						<stop  offset="0.4849" style="stop-color:#FDB946"/>
						<stop  offset="0.7754" style="stop-color:#F99C4D"/>
						<stop  offset="0.8658" style="stop-color:#F8924F"/>
						<stop  offset="1" style="stop-color:#F8924F"/>
					</linearGradient>
					<path style="fill:url(#SVGID_00000183953743779878885650000002173326611869977740_);" d="M2375.608,1897.925
						c0,92.994-72.781,166.024-165.654,163.017c-96.479-3.124-177.483-86.516-177.483-186.15
						c0-99.634,81.004-172.104,177.483-162.219C2302.828,1722.088,2375.608,1804.931,2375.608,1897.925z"/>
					
						<linearGradient id="SVGID_00000057141031145118007570000001087190690581603225_" gradientUnits="userSpaceOnUse" x1="2174.1807" y1="1822.3965" x2="2323.0371" y2="2138.3901">
						<stop  offset="0" style="stop-color:#FCB148"/>
						<stop  offset="0.0521" style="stop-color:#FDBA46"/>
						<stop  offset="0.1424" style="stop-color:#FFC244"/>
						<stop  offset="0.3183" style="stop-color:#FFC444"/>
						<stop  offset="0.4849" style="stop-color:#FDB946"/>
						<stop  offset="0.7754" style="stop-color:#F99C4D"/>
						<stop  offset="0.8658" style="stop-color:#F8924F"/>
						<stop  offset="1" style="stop-color:#F8924F"/>
					</linearGradient>
					<path style="fill:url(#SVGID_00000057141031145118007570000001087190690581603225_);" d="M2370.143,1897.556
						c0,89.926-70.424,160.461-160.189,157.447c-93.128-3.127-171.224-83.669-171.224-179.79
						c0-96.12,78.095-166.133,171.224-156.703C2299.719,1727.6,2370.143,1807.63,2370.143,1897.556z"/>
					<g>
						
							<linearGradient id="SVGID_00000036247070564944538990000006461975506215354792_" gradientUnits="userSpaceOnUse" x1="2168.2502" y1="1754.3987" x2="2243.1003" y2="2034.9237">
							<stop  offset="0" style="stop-color:#FFDB44"/>
							<stop  offset="1" style="stop-color:#FEEF06"/>
						</linearGradient>
						<path style="fill:url(#SVGID_00000036247070564944538990000006461975506215354792_);" d="M2209.035,1749.103
							L2209.035,1749.103c4.777,0.454,8.643,4.754,8.643,9.606v16.557c9.551,1.066,19.116,2.727,28.695,4.978
							c7.063,1.66,14.077,3.636,21.045,5.927c4.175,1.373,7.02,5.588,6.594,9.936l-2.033,20.762
							c-0.54,5.508-5.985,8.743-11.111,6.457c-4.59-2.047-9.295-3.8-14.118-5.259c-8.416-2.547-17.291-4.207-26.631-4.977
							l-2.442-0.201v47.417c24.918,6.971,43.219,16.35,55.045,28.147c11.77,11.74,17.634,26.372,17.634,43.937
							c0,18.995-6.483,34.206-19.501,45.677c-13.087,11.533-31.436,18.019-55.164,19.423v18.274c0,4.853-3.869,8.634-8.65,8.444
							l-0.153-0.006c-4.791-0.191-8.681-4.293-8.681-9.163v-18.027l-3.851-0.174c-11.123-0.502-21.778-1.637-31.958-3.407
							c-7.539-1.312-14.901-3.004-22.084-5.079c-4.344-1.255-7.327-5.393-6.928-9.839l2.392-26.689
							c0.517-5.77,6.313-9.127,11.799-6.963c6.395,2.522,12.869,4.647,19.423,6.376c10.213,2.693,20.564,4.421,31.053,5.188
							l0.154-52.745c-23.919-5.918-41.827-14.685-53.592-26.297c-11.821-11.666-17.751-26.596-17.751-44.749
							c0-18.786,6.431-33.287,19.245-43.464c12.749-10.126,30.872-15.163,54.253-15.15v-16.927
							C2200.362,1752.225,2204.248,1748.648,2209.035,1749.103z M2200.362,1812.397c-7.392,0.538-13.157,2.568-17.283,6.093
							c-4.133,3.531-6.201,8.277-6.201,14.233c0,5.643,1.914,10.359,5.737,14.145c3.817,3.78,9.738,6.798,17.747,9.054V1812.397z
							 M2215.692,1907.906v48.369c8.036,0.016,14.198-1.903,18.5-5.75c4.294-3.841,6.439-9.267,6.439-16.282
							c0-6.396-1.993-11.701-5.984-15.919C2230.65,1914.098,2224.337,1910.626,2215.692,1907.906z"/>
					</g>
					
						<linearGradient id="SVGID_00000092439655541929777280000010121372453561476248_" gradientUnits="userSpaceOnUse" x1="2130.3877" y1="1842.8459" x2="2278.9438" y2="2158.2021">
						<stop  offset="0" style="stop-color:#FCB148"/>
						<stop  offset="0.0521" style="stop-color:#FDBA46"/>
						<stop  offset="0.1424" style="stop-color:#FFC244"/>
						<stop  offset="0.3183" style="stop-color:#FFC444"/>
						<stop  offset="0.4849" style="stop-color:#FDB946"/>
						<stop  offset="0.7754" style="stop-color:#F99C4D"/>
						<stop  offset="0.8658" style="stop-color:#F8924F"/>
						<stop  offset="1" style="stop-color:#F8924F"/>
					</linearGradient>
					<path style="opacity:0.3;fill:url(#SVGID_00000092439655541929777280000010121372453561476248_);" d="M2180.966,1919.578
						c5.412-53.455,54.539-76.084,48.128-125.254c-3.952-30.305-26.921-55.845-52.545-75.786
						c-77.72,8.151-137.819,72.505-137.819,156.676c0,96.12,78.096,176.663,171.224,179.79c9.042,0.303,17.873-0.166,26.46-1.292
						C2199.429,2016.908,2176.316,1965.501,2180.966,1919.578z"/>
				</g>
				
					<linearGradient id="SVGID_00000071543504044252354790000006774206254527044015_" gradientUnits="userSpaceOnUse" x1="-7011.9487" y1="3637.8616" x2="-7494.5991" y2="3097.4587" gradientTransform="matrix(0.8705 0.4922 -0.4922 0.8705 10077.4473 2747.6741)">
					<stop  offset="0" style="stop-color:#444B8C"/>
					<stop  offset="0.9964" style="stop-color:#26264F"/>
				</linearGradient>
				<path style="fill:url(#SVGID_00000071543504044252354790000006774206254527044015_);" d="M2209.144,2421.816
					c-250.166,81.081-518.257-60.689-596.434-323.488c-80.055-269.116,70.796-554.605,334.284-630.47
					c258.74-74.497,520.368,84.46,587.132,348.225C2599.373,2073.848,2454.987,2342.136,2209.144,2421.816z M2188.955,2348.347
					c207.587-66.697,329.266-293.109,273.545-510.324c-56.813-221.464-276.976-353.788-493.681-290.746
					c-220.029,64.009-346.269,302.55-280.105,527.77C1753.574,2295.829,1978.297,2416.032,2188.955,2348.347z"/>
				
					<linearGradient id="SVGID_00000062878486008614724600000013705788284763658656_" gradientUnits="userSpaceOnUse" x1="-7721.4482" y1="2848.8423" x2="-7066.856" y2="3569.4446" gradientTransform="matrix(0.8705 0.4922 -0.4922 0.8705 10077.4473 2747.6741)">
					<stop  offset="0" style="stop-color:#444B8C"/>
					<stop  offset="0.9964" style="stop-color:#26264F"/>
				</linearGradient>
				<path style="fill:url(#SVGID_00000062878486008614724600000013705788284763658656_);" d="M2202.02,2395.889
					c-236.218,76.326-488.953-57.866-562.384-305.807c-75.094-253.557,67.033-522.387,315.095-594.073
					c243.848-70.469,490.83,79.019,554.107,327.822C2570.754,2067.285,2434.38,2320.809,2202.02,2395.889z M2188.955,2348.347
					c207.587-66.697,329.266-293.109,273.545-510.324c-56.813-221.464-276.976-353.788-493.681-290.746
					c-220.029,64.009-346.269,302.55-280.105,527.77C1753.574,2295.829,1978.297,2416.032,2188.955,2348.347z"/>
				<path style="opacity:0.3;fill:#FFFFFF;" d="M2475.63,1834.001c-58.655-229.2-286.415-366.362-510.792-301.211
					c-227.942,66.186-358.671,313.28-289.998,546.506c67.272,228.47,299.918,352.65,517.818,282.527
					C2407.274,2292.757,2533.12,2058.654,2475.63,1834.001z"/>
			</g>
			
				<linearGradient id="SVGID_00000078742385131361143170000013239602617363135925_" gradientUnits="userSpaceOnUse" x1="731.2016" y1="2324.2078" x2="819.9862" y2="2324.2078">
				<stop  offset="0" style="stop-color:#FFC444"/>
				<stop  offset="0.9964" style="stop-color:#F36F56"/>
			</linearGradient>
			<path style="fill:url(#SVGID_00000078742385131361143170000013239602617363135925_);" d="M731.202,2329.403l8.825-21.933
				c0,0,14.407,0.878,26.229-7.599c6.442-4.619,17.874-5.995,21.197-5.073c3.322,0.921,15.87,0.372,1.567,7.197
				c-14.301,6.822-14.189,11.892-8.228,17.492c5.961,5.6,28.646,17.647,36.81,18.226c8.166,0.581-6.598,13.21-14.832,14.823
				c-8.235,1.61-21.738,3.651-38.444-6.185C758.233,2342.764,731.202,2329.403,731.202,2329.403z"/>
			
				<linearGradient id="SVGID_00000114771578855878249260000000328589127171948456_" gradientUnits="userSpaceOnUse" x1="1522.7188" y1="2146.02" x2="1615.9874" y2="2146.02">
				<stop  offset="0" style="stop-color:#FFC444"/>
				<stop  offset="0.9964" style="stop-color:#F36F56"/>
			</linearGradient>
			<path style="fill:url(#SVGID_00000114771578855878249260000000328589127171948456_);" d="M1522.719,2142.543
				c0,0,36.908-3.671,58.9-13.08c21.992-9.411,36.199,4.101,34.178,13.456c-2.02,9.352-38.202,22.373-52.658,22.841
				C1548.685,2166.227,1522.719,2142.543,1522.719,2142.543z"/>
			<g>
				
					<linearGradient id="SVGID_00000005967381522479167430000016044999326083496578_" gradientUnits="userSpaceOnUse" x1="7329.8594" y1="1596.6185" x2="7342.7153" y2="1784.9603" gradientTransform="matrix(-1 0 0 1 8304.4873 0)">
					<stop  offset="0" style="stop-color:#444B8C"/>
					<stop  offset="0.9964" style="stop-color:#26264F"/>
				</linearGradient>
				<path style="fill:url(#SVGID_00000005967381522479167430000016044999326083496578_);" d="M993.375,1707.65
					c1.198,15.631-5.676,29.526-17.14,34.974c-6.811,3.237-13.555,2.688-17.376,2.005c-6.162-12.936-12.326-25.872-18.488-38.807
					c8.038,0.718,16.477,1.27,25.285,1.595C975.331,1707.774,984.585,1707.826,993.375,1707.65z"/>
				
					<linearGradient id="SVGID_00000097487282286862580110000002148808836908142992_" gradientUnits="userSpaceOnUse" x1="7290.3325" y1="1980.8571" x2="7290.3325" y2="1540.9713" gradientTransform="matrix(-1 0 0 1 8304.4873 0)">
					<stop  offset="0" style="stop-color:#444B8C"/>
					<stop  offset="0.9964" style="stop-color:#26264F"/>
				</linearGradient>
				<path style="fill:url(#SVGID_00000097487282286862580110000002148808836908142992_);" d="M980.993,1739.768
					c0,0,22.311,250.485,100.51,290.587c-2.005,8.02,0,73.186,0,73.186s-72.896-21.949-77.051-20.499
					c-4.155,1.45-88.284-137.996-45.594-338.414L980.993,1739.768z"/>
			</g>
		</g>
		<g>
			<g>
				
					<linearGradient id="SVGID_00000001659616585278680790000013269746493053888420_" gradientUnits="userSpaceOnUse" x1="2915.9639" y1="1863.0417" x2="2541.7883" y2="4759.8662">
					<stop  offset="0" style="stop-color:#FF9085"/>
					<stop  offset="1" style="stop-color:#FB6FBB"/>
				</linearGradient>
				<path style="fill:url(#SVGID_00000001659616585278680790000013269746493053888420_);" d="M3061.194,2527.184
					c-56.911,23.219-58.783,89.715-100.263,123.892c-36.853,30.364-39.935-27.832-33.873-55.288
					c13.17-59.643,72.366-95.745,117.1-130.625c50.579-39.436,112.326-124.446,73.872-191.511
					c-22.129-38.592-89.703-56.47-131.154-56.359c-202.898,0.541-107.504,276.53-147.722,300.117
					c-40.219,23.586-67.304-31.514-56.39-107.916c10.917-76.403,7.203-134.413-76.005-121.254
					c-83.21,13.158-126.666,210.604-46.475,300.207c80.191,89.606-28.437,159.584-45.096,101.151
					c-12.025-42.193-12.814-148.337-62.203-166.963c-82.3-31.001-105.624,142.711-86.886,186.564
					c26.265,61.473,102.048,84.756,138.424,139.736c10.569,15.973,33.986,55.14,20.017,74.318
					c-19.483,26.749-58.021-10.28-71.893-25.919c-31.182-35.166-65.741-144.549-125.324-83.599
					c-73.57,75.263,11.929,214.393,273.52,266.575c150.305,1.947,344.531-21.372,439.609-151.241
					c22.618-30.896,49.761-93.294,8.091-124.143c-38.092-28.198-94.792-12.146-129.578,12.599
					c-25.576,18.194-49.933,63.438-77.407,74.943c-40.208,16.841-51.629-46.27-47.325-71.039
					c9.624-55.377,81.273-68.456,128.458-74.093c78.323-9.355,168.638-14.091,175.962-99.822
					C3205.974,2561.783,3130.264,2499.014,3061.194,2527.184z"/>
				<g style="opacity:0.8;">
					<path style="fill:#FFFFFF;" d="M2724.219,3068.41c-3.468-0.491-5.919-3.658-5.49-7.148
						c0.369-3.022,39.127-306.198,222.257-647.368c1.685-3.134,5.594-4.305,8.725-2.625c3.136,1.682,4.313,5.59,2.63,8.726
						c-182.001,339.065-220.455,639.835-220.823,642.833c-0.433,3.533-3.654,6.099-7.176,5.6
						C2724.3,3068.422,2724.259,3068.416,2724.219,3068.41z"/>
				</g>
			</g>
			
				<linearGradient id="SVGID_00000112633213502660021460000013257989234185499793_" gradientUnits="userSpaceOnUse" x1="2979.2498" y1="2327.8123" x2="2731.4458" y2="4246.2822" gradientTransform="matrix(0.9901 0.1403 -0.1403 0.9901 143.8918 -442.8766)">
				<stop  offset="0" style="stop-color:#AA80F9"/>
				<stop  offset="0.9964" style="stop-color:#6165D7"/>
			</linearGradient>
			<path style="fill:url(#SVGID_00000112633213502660021460000013257989234185499793_);" d="M2794.737,2961.556
				c-21.045-23.75-76.395,0.888-99.213,10.013c-13.233,5.292-31.51,13.697-45.349,5.356c-14.536-8.76-11.147-24.841-0.165-35.021
				c19.662-18.226,52.596-19.334,77.367-26.065c26.61-7.23,51.723-18.65,67.677-42.213c12.722-18.787,19.201-48.305,10.915-69.758
				c-22.931-59.368-73.741-22.772-103.399,6.5c-14.391,14.204-45.457,37.783-63.4,16.09c-19.088-23.079,4.766-56.029,23.994-69.323
				c25.13-17.375,54.05-27.827,80.777-42.24c24.1-12.994,49.775-32.866,39.288-63.441c-8.101-23.62-34.62-39.815-59.004-41.364
				c-56.376-3.583-76.601,76.604-117.754,102.663c-14.549,9.214-45.312,13.819-59.264,0.78c-14.194-13.295-0.366-37.139,7.26-50.139
				c22.608-38.532,162.675-158.613,65.137-189.999c-24.549-7.9-60.35-4.891-82.389,8.306c-41.577,24.898-69.84,81.87-86.092,125.841
				c-25.563,69.166-35.914,148.545-28.716,221.954c15.911,162.24,98.388,225.31,98.388,225.31
				c36.949,18.248,84.523,31.403,125.906,28.59c48.646-3.306,110.083-30.266,139.618-70.577
				C2795.877,2999.777,2807.774,2976.268,2794.737,2961.556z"/>
		</g>
	</g>
</g>
</svg>
